<svg xmlns="http://www.w3.org/2000/svg" width="723.199" height="405.176" viewBox="0 0 723.199 405.176">
  <g id="Grupo_147073" data-name="Grupo 147073" transform="translate(13955.2 19240.338)">
    <path id="Trazado_296343" data-name="Trazado 296343" d="M0,0H723.176V60.672H0Z" transform="translate(-13955.2 -19240.338)" fill="#1a7b96"/>
    <path id="Trazado_296821" data-name="Trazado 296821" d="M-23.238-4.342V0h-3.085V-12.8h5.106a5.948,5.948,0,0,1,2.6.541,4.074,4.074,0,0,1,1.749,1.538,4.2,4.2,0,0,1,.62,2.263,3.7,3.7,0,0,1-1.34,2.993A5.561,5.561,0,0,1-21.27-4.342Zm0-2.382h2.021a1.906,1.906,0,0,0,1.367-.448,1.665,1.665,0,0,0,.47-1.266,2.059,2.059,0,0,0-.483-1.433,1.712,1.712,0,0,0-1.318-.545h-2.057Zm14.247-.105-.976-.07a1.752,1.752,0,0,0-1.793.879V0h-2.962V-9.51h2.777l.1,1.222a2.294,2.294,0,0,1,2.083-1.4,2.888,2.888,0,0,1,.826.105Zm5.5,7A4.889,4.889,0,0,1-7.031-1.129a4.507,4.507,0,0,1-1.354-3.4v-.246a5.84,5.84,0,0,1,.541-2.575A3.955,3.955,0,0,1-6.267-9.075a4.763,4.763,0,0,1,2.461-.611A4.117,4.117,0,0,1-.642-8.442,4.887,4.887,0,0,1,.519-4.975v1.151H-5.37a2.135,2.135,0,0,0,.694,1.257,2.066,2.066,0,0,0,1.389.457,2.662,2.662,0,0,0,2.2-.984l1.354,1.6A3.784,3.784,0,0,1-1.305-.277,5.3,5.3,0,0,1-3.489.176ZM-3.823-7.4q-1.3,0-1.547,1.723h2.988v-.229a1.467,1.467,0,0,0-.36-1.1A1.434,1.434,0,0,0-3.823-7.4ZM2.4,0V-7.453H1.02V-9.51H2.4v-.316a3.631,3.631,0,0,1,1.248-2.909,4.987,4.987,0,0,1,3.243-.949,11.509,11.509,0,0,1,3.094.51l-.4,2.338-.492-.132a7.832,7.832,0,0,0-2.021-.255q-1.7,0-1.7,1.547v.167H7.233v2.057H5.37V0Zm8.947,0H8.367V-9.51h2.979Zm4.992-9.51V.325a3.452,3.452,0,0,1-.967,2.6,3.714,3.714,0,0,1-2.672.914,6.308,6.308,0,0,1-1.4-.149V1.45a5.667,5.667,0,0,0,.835.079A1.084,1.084,0,0,0,13.368.308V-9.51Zm-3.19-2.461a1.334,1.334,0,0,1,.457-1.043,1.718,1.718,0,0,1,1.187-.407,1.718,1.718,0,0,1,1.187.407,1.334,1.334,0,0,1,.457,1.043,1.334,1.334,0,0,1-.457,1.043,1.718,1.718,0,0,1-1.187.407,1.718,1.718,0,0,1-1.187-.407A1.334,1.334,0,0,1,13.148-11.971ZM17.64-4.843a5.613,5.613,0,0,1,.554-2.536,3.96,3.96,0,0,1,1.591-1.709,4.791,4.791,0,0,1,2.435-.6,4.373,4.373,0,0,1,3.366,1.323,5.076,5.076,0,0,1,1.23,3.6v.105a4.925,4.925,0,0,1-1.235,3.529A4.384,4.384,0,0,1,22.236.176a4.434,4.434,0,0,1-3.261-1.217,4.761,4.761,0,0,1-1.327-3.3Zm2.962.185a3.538,3.538,0,0,0,.413,1.934,1.376,1.376,0,0,0,1.222.615q1.582,0,1.617-2.435v-.3q0-2.558-1.635-2.558-1.485,0-1.608,2.206Z" transform="translate(-13879 -19203.662)" fill="#fff"/>
    <path id="Trazado_296823" data-name="Trazado 296823" d="M-26.033-3.4a1.268,1.268,0,0,0-.479-1.055A5.954,5.954,0,0,0-28.2-5.238a16.147,16.147,0,0,1-1.969-.782q-2.487-1.222-2.487-3.357a3.011,3.011,0,0,1,.62-1.876,4.008,4.008,0,0,1,1.753-1.266,6.823,6.823,0,0,1,2.549-.453,5.969,5.969,0,0,1,2.474.492,3.917,3.917,0,0,1,1.7,1.4A3.661,3.661,0,0,1-22.948-9h-3.076a1.547,1.547,0,0,0-.479-1.213,1.867,1.867,0,0,0-1.3-.431,2.106,2.106,0,0,0-1.305.365,1.119,1.119,0,0,0-.479.927,1.127,1.127,0,0,0,.527.892,6.65,6.65,0,0,0,1.854.826,11.36,11.36,0,0,1,2.18.918,3.663,3.663,0,0,1,2.074,3.3A3.125,3.125,0,0,1-24.214-.782a5.629,5.629,0,0,1-3.472.958A6.888,6.888,0,0,1-30.5-.382a4.247,4.247,0,0,1-1.9-1.529,3.985,3.985,0,0,1-.637-2.237h3.094a1.963,1.963,0,0,0,.532,1.516,2.513,2.513,0,0,0,1.727.488,1.985,1.985,0,0,0,1.208-.33A1.088,1.088,0,0,0-26.033-3.4ZM-18.272,0h-2.979V-9.51h2.979ZM-19.38-13.324h3.129l-2.443,2.76-2.417,0Zm5.81,3.814.1,1.116a3.27,3.27,0,0,1,2.716-1.292A2.407,2.407,0,0,1-8.323-8.253,3.165,3.165,0,0,1-5.528-9.686q2.892,0,2.971,3.5V0H-5.528V-6a1.813,1.813,0,0,0-.246-1.063,1.048,1.048,0,0,0-.9-.334,1.4,1.4,0,0,0-1.31.782l.009.123V0h-2.971V-5.985a1.906,1.906,0,0,0-.237-1.081,1.045,1.045,0,0,0-.905-.334,1.42,1.42,0,0,0-1.3.782V0h-2.962V-9.51ZM7.963-4.676A5.8,5.8,0,0,1,7-1.081,3.238,3.238,0,0,1,4.271.176,2.81,2.81,0,0,1,1.934-.976L1.811,0H-.844V-13.5H2.118v4.755a2.711,2.711,0,0,1,2.136-.94A3.239,3.239,0,0,1,7-8.411a5.826,5.826,0,0,1,.967,3.586ZM4.992-4.865a3.866,3.866,0,0,0-.365-1.952A1.229,1.229,0,0,0,3.507-7.4a1.418,1.418,0,0,0-1.389.763v3.773a1.426,1.426,0,0,0,1.406.755A1.258,1.258,0,0,0,4.852-3.127,7.309,7.309,0,0,0,4.992-4.865Zm3.9.022a5.613,5.613,0,0,1,.554-2.536,3.96,3.96,0,0,1,1.591-1.709,4.791,4.791,0,0,1,2.435-.6A4.373,4.373,0,0,1,16.84-8.363a5.076,5.076,0,0,1,1.23,3.6v.105a4.925,4.925,0,0,1-1.235,3.529A4.384,4.384,0,0,1,13.491.176,4.434,4.434,0,0,1,10.23-1.042,4.761,4.761,0,0,1,8.9-4.342Zm2.962.185a3.538,3.538,0,0,0,.413,1.934,1.376,1.376,0,0,0,1.222.615q1.582,0,1.617-2.435v-.3q0-2.558-1.635-2.558-1.485,0-1.608,2.206ZM22.5,0H19.529V-13.5H22.5Zm1.45-4.843A5.613,5.613,0,0,1,24.5-7.378a3.96,3.96,0,0,1,1.591-1.709,4.791,4.791,0,0,1,2.435-.6A4.373,4.373,0,0,1,31.9-8.363a5.076,5.076,0,0,1,1.23,3.6v.105a4.925,4.925,0,0,1-1.235,3.529A4.384,4.384,0,0,1,28.547.176a4.434,4.434,0,0,1-3.261-1.217,4.761,4.761,0,0,1-1.327-3.3Zm2.962.185a3.538,3.538,0,0,0,.413,1.934,1.376,1.376,0,0,0,1.222.615q1.582,0,1.617-2.435v-.3q0-2.558-1.635-2.558-1.485,0-1.608,2.206Z" transform="translate(-13761 -19203.662)" fill="#fff"/>
    <path id="Trazado_296840" data-name="Trazado 296840" d="M-41.669-3.4a1.268,1.268,0,0,0-.479-1.055,5.954,5.954,0,0,0-1.683-.782A16.147,16.147,0,0,1-45.8-6.021q-2.487-1.222-2.487-3.357a3.011,3.011,0,0,1,.62-1.876,4.008,4.008,0,0,1,1.753-1.266,6.823,6.823,0,0,1,2.549-.453,5.969,5.969,0,0,1,2.474.492,3.917,3.917,0,0,1,1.7,1.4A3.661,3.661,0,0,1-38.584-9H-41.66a1.547,1.547,0,0,0-.479-1.213,1.867,1.867,0,0,0-1.3-.431,2.106,2.106,0,0,0-1.305.365,1.119,1.119,0,0,0-.479.927,1.127,1.127,0,0,0,.527.892,6.65,6.65,0,0,0,1.854.826,11.36,11.36,0,0,1,2.18.918,3.663,3.663,0,0,1,2.074,3.3A3.125,3.125,0,0,1-39.85-.782a5.629,5.629,0,0,1-3.472.958,6.888,6.888,0,0,1-2.817-.558,4.247,4.247,0,0,1-1.9-1.529,3.985,3.985,0,0,1-.637-2.237h3.094a1.963,1.963,0,0,0,.532,1.516,2.513,2.513,0,0,0,1.727.488,1.985,1.985,0,0,0,1.208-.33A1.088,1.088,0,0,0-41.669-3.4Zm10.2,2.373a3.054,3.054,0,0,1-2.54,1.2,3,3,0,0,1-2.369-.91,3.826,3.826,0,0,1-.8-2.615V-9.51h2.962v6.179a1.065,1.065,0,0,0,1.187,1.222,1.548,1.548,0,0,0,1.45-.729V-9.51h2.979V0h-2.777Zm13.315-3.647a5.8,5.8,0,0,1-.967,3.595A3.238,3.238,0,0,1-21.85.176,2.81,2.81,0,0,1-24.187-.976L-24.311,0h-2.654V-13.5H-24v4.755a2.711,2.711,0,0,1,2.136-.94,3.239,3.239,0,0,1,2.742,1.274,5.826,5.826,0,0,1,.967,3.586Zm-2.971-.189a3.866,3.866,0,0,0-.365-1.952A1.229,1.229,0,0,0-22.614-7.4,1.418,1.418,0,0,0-24-6.637v3.773a1.426,1.426,0,0,0,1.406.755A1.258,1.258,0,0,0-21.27-3.127,7.309,7.309,0,0,0-21.129-4.865Zm7.075-4.645.1,1.116a3.27,3.27,0,0,1,2.716-1.292A2.407,2.407,0,0,1-8.807-8.253,3.165,3.165,0,0,1-6.012-9.686q2.892,0,2.971,3.5V0H-6.012V-6a1.813,1.813,0,0,0-.246-1.063,1.048,1.048,0,0,0-.9-.334,1.4,1.4,0,0,0-1.31.782l.009.123V0h-2.971V-5.985a1.906,1.906,0,0,0-.237-1.081,1.045,1.045,0,0,0-.905-.334,1.42,1.42,0,0,0-1.3.782V0h-2.962V-9.51ZM4.315-1.028a3.054,3.054,0,0,1-2.54,1.2A3,3,0,0,1-.593-.734a3.826,3.826,0,0,1-.8-2.615V-9.51H1.564v6.179A1.065,1.065,0,0,0,2.751-2.109,1.548,1.548,0,0,0,4.2-2.839V-9.51H7.181V0H4.4ZM3.261-13.5H6.39L3.946-10.74l-2.417,0ZM11.927,0H8.956V-13.5h2.971ZM17.2-11.874V-9.51h1.564v2.057H17.2V-3.1a1.111,1.111,0,0,0,.193.747,1.037,1.037,0,0,0,.765.211A4.345,4.345,0,0,0,18.9-2.2V-.079a5.466,5.466,0,0,1-1.67.255,3.1,3.1,0,0,1-2.259-.721,2.954,2.954,0,0,1-.729-2.188v-4.72H13.025V-9.51h1.213v-2.364ZM23.054,0H20.083V-9.51h2.971ZM19.907-11.971a1.334,1.334,0,0,1,.457-1.043,1.718,1.718,0,0,1,1.187-.407,1.718,1.718,0,0,1,1.187.407,1.334,1.334,0,0,1,.457,1.043,1.334,1.334,0,0,1-.457,1.043,1.718,1.718,0,0,1-1.187.407,1.718,1.718,0,0,1-1.187-.407A1.334,1.334,0,0,1,19.907-11.971Zm13.8,7.286a5.735,5.735,0,0,1-1,3.538A3.2,3.2,0,0,1,30.015.176a2.742,2.742,0,0,1-2.153-.958V3.656H24.9V-9.51h2.769l.088.879A2.742,2.742,0,0,1,30-9.686a3.224,3.224,0,0,1,2.733,1.3,5.805,5.805,0,0,1,.976,3.564Zm-2.962-.185q0-2.531-1.477-2.531a1.394,1.394,0,0,0-1.406.756V-2.9a1.439,1.439,0,0,0,1.424.791q1.415,0,1.459-2.443ZM38.136,0H35.165V-13.5h2.971Zm1.45-4.843a5.613,5.613,0,0,1,.554-2.536A3.96,3.96,0,0,1,41.73-9.088a4.791,4.791,0,0,1,2.435-.6,4.373,4.373,0,0,1,3.366,1.323,5.076,5.076,0,0,1,1.23,3.6v.105a4.925,4.925,0,0,1-1.235,3.529A4.384,4.384,0,0,1,44.183.176a4.434,4.434,0,0,1-3.261-1.217,4.761,4.761,0,0,1-1.327-3.3Zm2.962.185a3.538,3.538,0,0,0,.413,1.934,1.376,1.376,0,0,0,1.222.615q1.582,0,1.617-2.435v-.3Q45.8-7.4,44.165-7.4q-1.485,0-1.608,2.206Z" transform="translate(-13302 -19203.662)" fill="#fff"/>
    <path id="Trazado_296828" data-name="Trazado 296828" d="M-28.578-12.8l2.856,8.9,2.848-8.9h4.061V0h-3.094V-2.988l.3-6.117L-24.7,0h-2.039l-3.1-9.114.3,6.126V0h-3.085V-12.8ZM-11.325-1.028a3.054,3.054,0,0,1-2.54,1.2,3,3,0,0,1-2.369-.91,3.826,3.826,0,0,1-.8-2.615V-9.51h2.962v6.179a1.065,1.065,0,0,0,1.187,1.222,1.548,1.548,0,0,0,1.45-.729V-9.51h2.979V0h-2.777ZM-12.379-13.5H-9.25l-2.443,2.76-2.417,0ZM-3.713,0H-6.684V-13.5h2.971ZM1.56-11.874V-9.51H3.125v2.057H1.56V-3.1a1.111,1.111,0,0,0,.193.747,1.037,1.037,0,0,0,.765.211A4.345,4.345,0,0,0,3.256-2.2V-.079a5.466,5.466,0,0,1-1.67.255A3.1,3.1,0,0,1-.672-.545,2.954,2.954,0,0,1-1.4-2.733v-4.72H-2.615V-9.51H-1.4v-2.364ZM7.414,0H4.443V-9.51H7.414ZM4.267-11.971a1.334,1.334,0,0,1,.457-1.043,1.718,1.718,0,0,1,1.187-.407,1.718,1.718,0,0,1,1.187.407,1.334,1.334,0,0,1,.457,1.043A1.334,1.334,0,0,1,7.1-10.927a1.718,1.718,0,0,1-1.187.407,1.718,1.718,0,0,1-1.187-.407A1.334,1.334,0,0,1,4.267-11.971Zm13.8,7.286a5.735,5.735,0,0,1-1,3.538A3.2,3.2,0,0,1,14.375.176a2.742,2.742,0,0,1-2.153-.958V3.656H9.259V-9.51h2.769l.088.879a2.742,2.742,0,0,1,2.241-1.055,3.224,3.224,0,0,1,2.733,1.3,5.805,5.805,0,0,1,.976,3.564ZM15.1-4.869Q15.1-7.4,13.627-7.4a1.394,1.394,0,0,0-1.406.756V-2.9a1.439,1.439,0,0,0,1.424.791q1.415,0,1.459-2.443ZM22.5,0H19.525V-13.5H22.5Zm1.45-4.843A5.613,5.613,0,0,1,24.5-7.378,3.96,3.96,0,0,1,26.09-9.088a4.791,4.791,0,0,1,2.435-.6,4.373,4.373,0,0,1,3.366,1.323,5.076,5.076,0,0,1,1.23,3.6v.105a4.925,4.925,0,0,1-1.235,3.529A4.384,4.384,0,0,1,28.542.176a4.434,4.434,0,0,1-3.261-1.217,4.761,4.761,0,0,1-1.327-3.3Zm2.962.185a3.538,3.538,0,0,0,.413,1.934,1.376,1.376,0,0,0,1.222.615q1.582,0,1.617-2.435v-.3q0-2.558-1.635-2.558-1.485,0-1.608,2.206Z" transform="translate(-13650 -19203.662)" fill="#fff"/>
    <path id="Trazado_296835" data-name="Trazado 296835" d="M-26.033-3.4a1.268,1.268,0,0,0-.479-1.055A5.954,5.954,0,0,0-28.2-5.238a16.147,16.147,0,0,1-1.969-.782q-2.487-1.222-2.487-3.357a3.011,3.011,0,0,1,.62-1.876,4.008,4.008,0,0,1,1.753-1.266,6.823,6.823,0,0,1,2.549-.453,5.969,5.969,0,0,1,2.474.492,3.917,3.917,0,0,1,1.7,1.4A3.661,3.661,0,0,1-22.948-9h-3.076a1.547,1.547,0,0,0-.479-1.213,1.867,1.867,0,0,0-1.3-.431,2.106,2.106,0,0,0-1.305.365,1.119,1.119,0,0,0-.479.927,1.127,1.127,0,0,0,.527.892,6.65,6.65,0,0,0,1.854.826,11.36,11.36,0,0,1,2.18.918,3.663,3.663,0,0,1,2.074,3.3A3.125,3.125,0,0,1-24.214-.782a5.629,5.629,0,0,1-3.472.958A6.888,6.888,0,0,1-30.5-.382a4.247,4.247,0,0,1-1.9-1.529,3.985,3.985,0,0,1-.637-2.237h3.094a1.963,1.963,0,0,0,.532,1.516,2.513,2.513,0,0,0,1.727.488,1.985,1.985,0,0,0,1.208-.33A1.088,1.088,0,0,0-26.033-3.4ZM-18.272,0h-2.979V-9.51h2.979ZM-19.38-13.324h3.129l-2.443,2.76-2.417,0Zm5.81,3.814.1,1.116a3.27,3.27,0,0,1,2.716-1.292A2.407,2.407,0,0,1-8.323-8.253,3.165,3.165,0,0,1-5.528-9.686q2.892,0,2.971,3.5V0H-5.528V-6a1.813,1.813,0,0,0-.246-1.063,1.048,1.048,0,0,0-.9-.334,1.4,1.4,0,0,0-1.31.782l.009.123V0h-2.971V-5.985a1.906,1.906,0,0,0-.237-1.081,1.045,1.045,0,0,0-.905-.334,1.42,1.42,0,0,0-1.3.782V0h-2.962V-9.51ZM7.963-4.676A5.8,5.8,0,0,1,7-1.081,3.238,3.238,0,0,1,4.271.176,2.81,2.81,0,0,1,1.934-.976L1.811,0H-.844V-13.5H2.118v4.755a2.711,2.711,0,0,1,2.136-.94A3.239,3.239,0,0,1,7-8.411a5.826,5.826,0,0,1,.967,3.586ZM4.992-4.865a3.866,3.866,0,0,0-.365-1.952A1.229,1.229,0,0,0,3.507-7.4a1.418,1.418,0,0,0-1.389.763v3.773a1.426,1.426,0,0,0,1.406.755A1.258,1.258,0,0,0,4.852-3.127,7.309,7.309,0,0,0,4.992-4.865Zm3.9.022a5.613,5.613,0,0,1,.554-2.536,3.96,3.96,0,0,1,1.591-1.709,4.791,4.791,0,0,1,2.435-.6A4.373,4.373,0,0,1,16.84-8.363a5.076,5.076,0,0,1,1.23,3.6v.105a4.925,4.925,0,0,1-1.235,3.529A4.384,4.384,0,0,1,13.491.176,4.434,4.434,0,0,1,10.23-1.042,4.761,4.761,0,0,1,8.9-4.342Zm2.962.185a3.538,3.538,0,0,0,.413,1.934,1.376,1.376,0,0,0,1.222.615q1.582,0,1.617-2.435v-.3q0-2.558-1.635-2.558-1.485,0-1.608,2.206ZM22.5,0H19.529V-13.5H22.5Zm1.45-4.843A5.613,5.613,0,0,1,24.5-7.378a3.96,3.96,0,0,1,1.591-1.709,4.791,4.791,0,0,1,2.435-.6A4.373,4.373,0,0,1,31.9-8.363a5.076,5.076,0,0,1,1.23,3.6v.105a4.925,4.925,0,0,1-1.235,3.529A4.384,4.384,0,0,1,28.547.176a4.434,4.434,0,0,1-3.261-1.217,4.761,4.761,0,0,1-1.327-3.3Zm2.962.185a3.538,3.538,0,0,0,.413,1.934,1.376,1.376,0,0,0,1.222.615q1.582,0,1.617-2.435v-.3q0-2.558-1.635-2.558-1.485,0-1.608,2.206Z" transform="translate(-13406 -19203.662)" fill="#fff"/>
    <path id="Trazado_296833" data-name="Trazado 296833" d="M-23.238-4.342V0h-3.085V-12.8h5.106a5.948,5.948,0,0,1,2.6.541,4.074,4.074,0,0,1,1.749,1.538,4.2,4.2,0,0,1,.62,2.263,3.7,3.7,0,0,1-1.34,2.993A5.561,5.561,0,0,1-21.27-4.342Zm0-2.382h2.021a1.906,1.906,0,0,0,1.367-.448,1.665,1.665,0,0,0,.47-1.266,2.059,2.059,0,0,0-.483-1.433,1.712,1.712,0,0,0-1.318-.545h-2.057Zm14.247-.105-.976-.07a1.752,1.752,0,0,0-1.793.879V0h-2.962V-9.51h2.777l.1,1.222a2.294,2.294,0,0,1,2.083-1.4,2.888,2.888,0,0,1,.826.105Zm5.5,7A4.889,4.889,0,0,1-7.031-1.129a4.507,4.507,0,0,1-1.354-3.4v-.246a5.84,5.84,0,0,1,.541-2.575A3.955,3.955,0,0,1-6.267-9.075a4.763,4.763,0,0,1,2.461-.611A4.117,4.117,0,0,1-.642-8.442,4.887,4.887,0,0,1,.519-4.975v1.151H-5.37a2.135,2.135,0,0,0,.694,1.257,2.066,2.066,0,0,0,1.389.457,2.662,2.662,0,0,0,2.2-.984l1.354,1.6A3.784,3.784,0,0,1-1.305-.277,5.3,5.3,0,0,1-3.489.176ZM-3.823-7.4q-1.3,0-1.547,1.723h2.988v-.229a1.467,1.467,0,0,0-.36-1.1A1.434,1.434,0,0,0-3.823-7.4ZM2.4,0V-7.453H1.02V-9.51H2.4v-.316a3.631,3.631,0,0,1,1.248-2.909,4.987,4.987,0,0,1,3.243-.949,11.509,11.509,0,0,1,3.094.51l-.4,2.338-.492-.132a7.832,7.832,0,0,0-2.021-.255q-1.7,0-1.7,1.547v.167H7.233v2.057H5.37V0Zm8.947,0H8.367V-9.51h2.979Zm4.992-9.51V.325a3.452,3.452,0,0,1-.967,2.6,3.714,3.714,0,0,1-2.672.914,6.308,6.308,0,0,1-1.4-.149V1.45a5.667,5.667,0,0,0,.835.079A1.084,1.084,0,0,0,13.368.308V-9.51Zm-3.19-2.461a1.334,1.334,0,0,1,.457-1.043,1.718,1.718,0,0,1,1.187-.407,1.718,1.718,0,0,1,1.187.407,1.334,1.334,0,0,1,.457,1.043,1.334,1.334,0,0,1-.457,1.043,1.718,1.718,0,0,1-1.187.407,1.718,1.718,0,0,1-1.187-.407A1.334,1.334,0,0,1,13.148-11.971ZM17.64-4.843a5.613,5.613,0,0,1,.554-2.536,3.96,3.96,0,0,1,1.591-1.709,4.791,4.791,0,0,1,2.435-.6,4.373,4.373,0,0,1,3.366,1.323,5.076,5.076,0,0,1,1.23,3.6v.105a4.925,4.925,0,0,1-1.235,3.529A4.384,4.384,0,0,1,22.236.176a4.434,4.434,0,0,1-3.261-1.217,4.761,4.761,0,0,1-1.327-3.3Zm2.962.185a3.538,3.538,0,0,0,.413,1.934,1.376,1.376,0,0,0,1.222.615q1.582,0,1.617-2.435v-.3q0-2.558-1.635-2.558-1.485,0-1.608,2.206Z" transform="translate(-13518 -19203.662)" fill="#fff"/>
    <path id="Trazado_296818" data-name="Trazado 296818" d="M0,0H723V55H0Z" transform="translate(-13955 -19177.662)" fill="#ebeff6"/>
    <path id="Trazado_296820" data-name="Trazado 296820" d="M0,0H723V41H0Z" transform="translate(-13955 -19121.662)" fill="#f7fdff"/>
    <path id="Trazado_296829" data-name="Trazado 296829" d="M0,0H723V41H0Z" transform="translate(-13955 -19038.662)" fill="#f7fdff"/>
    <path id="Trazado_296842" data-name="Trazado 296842" d="M0,0H723V41H0Z" transform="translate(-13955 -18876.662)" fill="#f7fdff"/>
    <path id="Trazado_296834" data-name="Trazado 296834" d="M0,0H723V41H0Z" transform="translate(-13955 -18954.662)" fill="#f7fdff"/>
    <path id="Trazado_296825" data-name="Trazado 296825" d="M0,0H723V41H0Z" transform="translate(-13955 -19080.662)" fill="#ebeff6"/>
    <path id="Trazado_296838" data-name="Trazado 296838" d="M0,0H723V41H0Z" transform="translate(-13955 -18918.662)" fill="#ebeff6"/>
    <path id="Trazado_296831" data-name="Trazado 296831" d="M0,0H723V41H0Z" transform="translate(-13955 -18996.662)" fill="#ebeff6"/>
    <path id="Trazado_296819" data-name="Trazado 296819" d="M55.367,9.742h-4.93v4.031h5.727V15H48.938V3.625h7.148V4.852H50.438V8.516h4.93Zm5.273-.109,1.875-3.086H64.2l-2.766,4.18L64.289,15H62.617l-1.953-3.164L58.711,15h-1.68l2.852-4.273-2.766-4.18h1.672ZM70.953,15a3.036,3.036,0,0,1-.2-.891,3.225,3.225,0,0,1-2.406,1.047,2.984,2.984,0,0,1-2.051-.707,2.288,2.288,0,0,1-.8-1.793,2.39,2.39,0,0,1,1-2.051,4.733,4.733,0,0,1,2.824-.73h1.406V9.211A1.623,1.623,0,0,0,70.273,8a1.821,1.821,0,0,0-1.336-.449,2.108,2.108,0,0,0-1.3.391,1.151,1.151,0,0,0-.523.945H65.664a2,2,0,0,1,.449-1.223,3.066,3.066,0,0,1,1.219-.934,4.1,4.1,0,0,1,1.691-.344,3.342,3.342,0,0,1,2.289.73,2.635,2.635,0,0,1,.859,2.012v3.891a4.757,4.757,0,0,0,.3,1.852V15Zm-2.4-1.1a2.54,2.54,0,0,0,1.289-.352,2.127,2.127,0,0,0,.883-.914V10.9H69.594q-2.656,0-2.656,1.555a1.316,1.316,0,0,0,.453,1.063A1.742,1.742,0,0,0,68.555,13.9ZM45.121,50.547V55h-1.5V43.625h4.2a4.215,4.215,0,0,1,2.926.953A3.231,3.231,0,0,1,51.8,47.1a3.189,3.189,0,0,1-1.035,2.551,4.4,4.4,0,0,1-2.965.895Zm0-1.227h2.7a2.7,2.7,0,0,0,1.844-.567,2.075,2.075,0,0,0,.641-1.64,2.143,2.143,0,0,0-.641-1.628,2.525,2.525,0,0,0-1.758-.634H45.121Zm11.773,5.836a3.693,3.693,0,0,1-2.8-1.129,4.19,4.19,0,0,1-1.078-3.02v-.266A5.073,5.073,0,0,1,53.5,48.5a3.748,3.748,0,0,1,1.344-1.547,3.378,3.378,0,0,1,1.871-.559,3.166,3.166,0,0,1,2.563,1.086,4.7,4.7,0,0,1,.914,3.109v.6H54.465a3,3,0,0,0,.73,2.02,2.3,2.3,0,0,0,1.777.77,2.517,2.517,0,0,0,1.3-.312,3.258,3.258,0,0,0,.93-.828l.883.688A3.55,3.55,0,0,1,56.895,55.156Zm-.18-7.578a1.928,1.928,0,0,0-1.469.637A3.1,3.1,0,0,0,54.512,50h4.234v-.109a2.753,2.753,0,0,0-.594-1.707A1.815,1.815,0,0,0,56.715,47.578ZM63.824,44.5v2.047H65.4v1.117H63.824v5.249a1.173,1.173,0,0,0,.211.763.888.888,0,0,0,.719.254,3.5,3.5,0,0,0,.688-.094V55a4.215,4.215,0,0,1-1.109.155,1.8,1.8,0,0,1-1.461-.586,2.517,2.517,0,0,1-.492-1.664V47.664H60.84V46.547h1.539V44.5ZM72.309,55a3.036,3.036,0,0,1-.2-.891A3.225,3.225,0,0,1,69.7,55.156a2.984,2.984,0,0,1-2.051-.707,2.288,2.288,0,0,1-.8-1.793,2.39,2.39,0,0,1,1-2.051,4.733,4.733,0,0,1,2.824-.73h1.406v-.664A1.623,1.623,0,0,0,71.629,48a1.821,1.821,0,0,0-1.336-.449,2.107,2.107,0,0,0-1.3.391,1.151,1.151,0,0,0-.523.945H67.02a2,2,0,0,1,.449-1.223,3.066,3.066,0,0,1,1.219-.934,4.1,4.1,0,0,1,1.691-.344,3.342,3.342,0,0,1,2.289.73,2.635,2.635,0,0,1,.859,2.012v3.891a4.757,4.757,0,0,0,.3,1.852V55Zm-2.4-1.1a2.54,2.54,0,0,0,1.289-.352,2.127,2.127,0,0,0,.883-.914V50.9H70.949q-2.656,0-2.656,1.555a1.316,1.316,0,0,0,.453,1.063A1.742,1.742,0,0,0,69.91,53.9ZM52.152,84.852H48.5V95H47V84.852H43.355V83.625h8.8Zm4.2,10.3a3.693,3.693,0,0,1-2.8-1.129,4.19,4.19,0,0,1-1.078-3.02v-.266a5.073,5.073,0,0,1,.48-2.246A3.748,3.748,0,0,1,54.3,86.949a3.378,3.378,0,0,1,1.871-.559,3.166,3.166,0,0,1,2.563,1.086,4.7,4.7,0,0,1,.914,3.109v.6H53.918a3,3,0,0,0,.73,2.02,2.3,2.3,0,0,0,1.777.77,2.517,2.517,0,0,0,1.3-.312,3.259,3.259,0,0,0,.93-.828l.883.688A3.55,3.55,0,0,1,56.348,95.156Zm-.18-7.578a1.928,1.928,0,0,0-1.469.637A3.1,3.1,0,0,0,53.965,90H58.2v-.109a2.753,2.753,0,0,0-.594-1.707A1.815,1.815,0,0,0,56.168,87.578Zm9.234.266a4.331,4.331,0,0,0-.711-.055A1.9,1.9,0,0,0,62.762,89v6H61.316V86.547h1.406l.023.977a2.251,2.251,0,0,1,2.016-1.133,1.477,1.477,0,0,1,.641.109ZM71.637,95a3.036,3.036,0,0,1-.2-.891,3.225,3.225,0,0,1-2.406,1.047,2.984,2.984,0,0,1-2.051-.707,2.287,2.287,0,0,1-.8-1.793,2.39,2.39,0,0,1,1-2.051A4.733,4.733,0,0,1,70,89.875H71.41v-.664A1.623,1.623,0,0,0,70.957,88a1.821,1.821,0,0,0-1.336-.449,2.108,2.108,0,0,0-1.3.391,1.151,1.151,0,0,0-.523.945H66.348a2,2,0,0,1,.449-1.223,3.066,3.066,0,0,1,1.219-.934,4.1,4.1,0,0,1,1.691-.344,3.342,3.342,0,0,1,2.289.73,2.635,2.635,0,0,1,.859,2.012v3.891a4.757,4.757,0,0,0,.3,1.852V95Zm-2.4-1.1a2.54,2.54,0,0,0,1.289-.352,2.127,2.127,0,0,0,.883-.914V90.9H70.277q-2.656,0-2.656,1.555a1.316,1.316,0,0,0,.453,1.063A1.742,1.742,0,0,0,69.238,93.9Zm-17.25,39.609a3.465,3.465,0,0,1-1.613,1.238,6.517,6.517,0,0,1-2.41.41A4.674,4.674,0,0,1,45.5,134.5a4.346,4.346,0,0,1-1.668-1.855,6.408,6.408,0,0,1-.605-2.789v-.992a5.982,5.982,0,0,1,1.2-3.984,4.179,4.179,0,0,1,3.371-1.414,4.316,4.316,0,0,1,2.867.91,3.965,3.965,0,0,1,1.328,2.582h-1.5A2.48,2.48,0,0,0,47.8,124.7a2.655,2.655,0,0,0-2.285,1.06,5.173,5.173,0,0,0-.785,3.069v.93a4.848,4.848,0,0,0,.875,3.046,2.836,2.836,0,0,0,2.367,1.13,5.229,5.229,0,0,0,1.477-.187,2.283,2.283,0,0,0,1.047-.631v-2.549H47.863v-1.227h4.125ZM55.832,135H54.387v-8.453h1.445ZM54.27,124.3a.863.863,0,0,1,.215-.594.807.807,0,0,1,.637-.242.819.819,0,0,1,.641.242.854.854,0,0,1,.219.594.826.826,0,0,1-.219.586.834.834,0,0,1-.641.234.821.821,0,0,1-.637-.234A.834.834,0,0,1,54.27,124.3Zm3.531,6.4a4.968,4.968,0,0,1,.914-3.145,3.151,3.151,0,0,1,4.836-.074l.07-.937h1.32v8.25a3.439,3.439,0,0,1-.973,2.586,3.589,3.589,0,0,1-2.613.945,4.348,4.348,0,0,1-1.789-.391,3.08,3.08,0,0,1-1.336-1.07l.75-.867a2.826,2.826,0,0,0,2.273,1.148,2.214,2.214,0,0,0,1.645-.594,2.269,2.269,0,0,0,.59-1.672v-.727a2.971,2.971,0,0,1-2.367,1,2.887,2.887,0,0,1-2.4-1.2A5.224,5.224,0,0,1,57.8,130.7Zm1.453.164a3.79,3.79,0,0,0,.586,2.246,1.9,1.9,0,0,0,1.641.816,2.117,2.117,0,0,0,2.008-1.242v-3.859a2.142,2.142,0,0,0-1.992-1.211,1.921,1.921,0,0,0-1.648.82A4.128,4.128,0,0,0,59.254,130.867ZM72.34,135a3.036,3.036,0,0,1-.2-.891,3.225,3.225,0,0,1-2.406,1.047,2.984,2.984,0,0,1-2.051-.707,2.288,2.288,0,0,1-.8-1.793,2.39,2.39,0,0,1,1-2.051,4.733,4.733,0,0,1,2.824-.73h1.406v-.664A1.623,1.623,0,0,0,71.66,128a1.821,1.821,0,0,0-1.336-.449,2.108,2.108,0,0,0-1.3.391,1.151,1.151,0,0,0-.523.945H67.051a2,2,0,0,1,.449-1.223,3.066,3.066,0,0,1,1.219-.934,4.1,4.1,0,0,1,1.691-.344,3.342,3.342,0,0,1,2.289.73,2.635,2.635,0,0,1,.859,2.012v3.891a4.757,4.757,0,0,0,.3,1.852V135Zm-2.4-1.1a2.54,2.54,0,0,0,1.289-.352,2.127,2.127,0,0,0,.883-.914V130.9H70.98q-2.656,0-2.656,1.555a1.316,1.316,0,0,0,.453,1.063A1.742,1.742,0,0,0,69.941,133.9ZM41.7,163.625l3.719,9.281,3.719-9.281h1.945V175h-1.5v-4.43l.141-4.781L45.984,175H44.836l-3.727-9.187.148,4.758V175h-1.5V163.625Zm15.313,11.531a3.693,3.693,0,0,1-2.8-1.129,4.19,4.19,0,0,1-1.078-3.02v-.266a5.073,5.073,0,0,1,.48-2.246,3.748,3.748,0,0,1,1.344-1.547,3.379,3.379,0,0,1,1.871-.559,3.166,3.166,0,0,1,2.563,1.086,4.7,4.7,0,0,1,.914,3.109v.6H54.578a3,3,0,0,0,.73,2.02,2.3,2.3,0,0,0,1.777.77,2.517,2.517,0,0,0,1.3-.312,3.258,3.258,0,0,0,.93-.828l.883.688A3.55,3.55,0,0,1,57.008,175.156Zm-.18-7.578a1.928,1.928,0,0,0-1.469.637A3.1,3.1,0,0,0,54.625,170h4.234v-.109a2.753,2.753,0,0,0-.594-1.707A1.815,1.815,0,0,0,56.828,167.578Zm4.8,3.125a4.968,4.968,0,0,1,.914-3.145,3.151,3.151,0,0,1,4.836-.074l.07-.937h1.32v8.25a3.439,3.439,0,0,1-.973,2.586,3.589,3.589,0,0,1-2.613.945,4.348,4.348,0,0,1-1.789-.391,3.08,3.08,0,0,1-1.336-1.07l.75-.867a2.826,2.826,0,0,0,2.273,1.148,2.214,2.214,0,0,0,1.645-.594,2.269,2.269,0,0,0,.59-1.672v-.727a2.971,2.971,0,0,1-2.367,1,2.887,2.887,0,0,1-2.4-1.2A5.224,5.224,0,0,1,61.633,170.7Zm1.453.164a3.79,3.79,0,0,0,.586,2.246,1.9,1.9,0,0,0,1.641.816,2.117,2.117,0,0,0,2.008-1.242v-3.859a2.142,2.142,0,0,0-1.992-1.211,1.921,1.921,0,0,0-1.648.82A4.128,4.128,0,0,0,63.086,170.867ZM76.172,175a3.036,3.036,0,0,1-.2-.891,3.225,3.225,0,0,1-2.406,1.047,2.984,2.984,0,0,1-2.051-.707,2.288,2.288,0,0,1-.8-1.793,2.39,2.39,0,0,1,1-2.051,4.733,4.733,0,0,1,2.824-.73h1.406v-.664A1.623,1.623,0,0,0,75.492,168a1.821,1.821,0,0,0-1.336-.449,2.107,2.107,0,0,0-1.3.391,1.151,1.151,0,0,0-.523.945H70.883a2,2,0,0,1,.449-1.223,3.066,3.066,0,0,1,1.219-.934,4.1,4.1,0,0,1,1.691-.344,3.342,3.342,0,0,1,2.289.73,2.635,2.635,0,0,1,.859,2.012v3.891a4.757,4.757,0,0,0,.3,1.852V175Zm-2.4-1.1a2.54,2.54,0,0,0,1.289-.352,2.127,2.127,0,0,0,.883-.914V170.9H74.813q-2.656,0-2.656,1.555a1.316,1.316,0,0,0,.453,1.063A1.742,1.742,0,0,0,73.773,173.9ZM49.25,209.711l-1.391,1.445V215h-1.5V203.625h1.5v5.625l5.055-5.625h1.813l-4.477,5.023L55.078,215h-1.8ZM57.734,215H56.289v-8.453h1.445Zm-1.562-10.7a.863.863,0,0,1,.215-.594.807.807,0,0,1,.637-.242.819.819,0,0,1,.641.242.854.854,0,0,1,.219.594.826.826,0,0,1-.219.586.834.834,0,0,1-.641.234.821.821,0,0,1-.637-.234A.834.834,0,0,1,56.172,204.3ZM61.617,215H60.172V203h1.445Zm1.93-4.3a4.993,4.993,0,0,1,.488-2.234,3.643,3.643,0,0,1,1.359-1.531,3.7,3.7,0,0,1,1.988-.539,3.565,3.565,0,0,1,2.793,1.2,4.6,4.6,0,0,1,1.066,3.18v.1a5.036,5.036,0,0,1-.473,2.215,3.589,3.589,0,0,1-1.352,1.527,3.743,3.743,0,0,1-2.02.547,3.556,3.556,0,0,1-2.785-1.2,4.575,4.575,0,0,1-1.066-3.164Zm1.453.172a3.616,3.616,0,0,0,.652,2.258,2.211,2.211,0,0,0,3.5-.012A3.955,3.955,0,0,0,69.8,210.7a3.61,3.61,0,0,0-.66-2.254,2.1,2.1,0,0,0-1.754-.863,2.075,2.075,0,0,0-1.727.852A3.925,3.925,0,0,0,65,210.867ZM47.336,255H45.828v-5.258H40.094V255h-1.5V243.625h1.5v4.891h5.734v-4.891h1.508Zm5.945.156a3.693,3.693,0,0,1-2.8-1.129,4.19,4.19,0,0,1-1.078-3.02v-.266a5.073,5.073,0,0,1,.48-2.246,3.748,3.748,0,0,1,1.344-1.547,3.379,3.379,0,0,1,1.871-.559,3.166,3.166,0,0,1,2.563,1.086,4.7,4.7,0,0,1,.914,3.109v.6H50.852a3,3,0,0,0,.73,2.02,2.3,2.3,0,0,0,1.777.77,2.517,2.517,0,0,0,1.3-.312,3.258,3.258,0,0,0,.93-.828l.883.688A3.55,3.55,0,0,1,53.281,255.156Zm-.18-7.578a1.928,1.928,0,0,0-1.469.637A3.1,3.1,0,0,0,50.9,250h4.234v-.109a2.753,2.753,0,0,0-.594-1.707A1.815,1.815,0,0,0,53.1,247.578Zm8.539,6.4a2.082,2.082,0,0,0,1.352-.469,1.649,1.649,0,0,0,.641-1.172H65a2.621,2.621,0,0,1-.5,1.383,3.293,3.293,0,0,1-1.23,1.047,3.55,3.55,0,0,1-1.629.391A3.482,3.482,0,0,1,58.895,254a4.59,4.59,0,0,1-1.02-3.152v-.242a5.089,5.089,0,0,1,.453-2.2,3.451,3.451,0,0,1,1.3-1.492,3.7,3.7,0,0,1,2-.531,3.39,3.39,0,0,1,2.363.852,3.043,3.043,0,0,1,1,2.211H63.633a1.992,1.992,0,0,0-.621-1.348,1.932,1.932,0,0,0-1.379-.527,2.023,2.023,0,0,0-1.707.793,3.724,3.724,0,0,0-.605,2.293v.273a3.65,3.65,0,0,0,.6,2.25A2.033,2.033,0,0,0,61.641,253.977Zm6.945-9.477v2.047h1.578v1.117H68.586v5.249a1.173,1.173,0,0,0,.211.763.888.888,0,0,0,.719.254,3.5,3.5,0,0,0,.688-.094V255a4.215,4.215,0,0,1-1.109.155,1.8,1.8,0,0,1-1.461-.586,2.517,2.517,0,0,1-.492-1.664v-5.242H65.6v-1.117h1.539V244.5Zm2.727,6.2a4.993,4.993,0,0,1,.488-2.234,3.643,3.643,0,0,1,1.359-1.531,3.7,3.7,0,0,1,1.988-.539,3.565,3.565,0,0,1,2.793,1.2,4.6,4.6,0,0,1,1.066,3.18v.1a5.036,5.036,0,0,1-.473,2.215,3.589,3.589,0,0,1-1.352,1.527,3.743,3.743,0,0,1-2.02.547,3.556,3.556,0,0,1-2.785-1.2,4.575,4.575,0,0,1-1.066-3.164Zm1.453.172a3.616,3.616,0,0,0,.652,2.258,2.211,2.211,0,0,0,3.5-.012,3.955,3.955,0,0,0,.648-2.418,3.61,3.61,0,0,0-.66-2.254,2.1,2.1,0,0,0-1.754-.863,2.075,2.075,0,0,0-1.727.852A3.925,3.925,0,0,0,72.766,250.867ZM41.8,295V283.625h3.211a5.169,5.169,0,0,1,2.625.656,4.438,4.438,0,0,1,1.762,1.867,6.077,6.077,0,0,1,.629,2.781v.727a6.1,6.1,0,0,1-.621,2.82,4.369,4.369,0,0,1-1.773,1.859,5.5,5.5,0,0,1-2.684.664Zm1.5-10.148v8.922h1.578a3.434,3.434,0,0,0,2.7-1.079,4.458,4.458,0,0,0,.965-3.073v-.665a4.529,4.529,0,0,0-.91-3.014,3.239,3.239,0,0,0-2.582-1.091Zm12.273,10.3a3.693,3.693,0,0,1-2.8-1.129,4.19,4.19,0,0,1-1.078-3.02v-.266a5.073,5.073,0,0,1,.48-2.246,3.748,3.748,0,0,1,1.344-1.547,3.378,3.378,0,0,1,1.871-.559,3.166,3.166,0,0,1,2.563,1.086,4.7,4.7,0,0,1,.914,3.109v.6H53.141a3,3,0,0,0,.73,2.02,2.3,2.3,0,0,0,1.777.77,2.517,2.517,0,0,0,1.3-.312,3.259,3.259,0,0,0,.93-.828l.883.688A3.55,3.55,0,0,1,55.57,295.156Zm-.18-7.578a1.928,1.928,0,0,0-1.469.637A3.1,3.1,0,0,0,53.188,290h4.234v-.109a2.753,2.753,0,0,0-.594-1.707A1.815,1.815,0,0,0,55.391,287.578Zm8.539,6.4a2.082,2.082,0,0,0,1.352-.469,1.649,1.649,0,0,0,.641-1.172h1.367a2.621,2.621,0,0,1-.5,1.383,3.293,3.293,0,0,1-1.23,1.047,3.551,3.551,0,0,1-1.629.391A3.482,3.482,0,0,1,61.184,294a4.59,4.59,0,0,1-1.02-3.152v-.242a5.089,5.089,0,0,1,.453-2.2,3.451,3.451,0,0,1,1.3-1.492,3.7,3.7,0,0,1,2-.531,3.39,3.39,0,0,1,2.363.852,3.043,3.043,0,0,1,1,2.211H65.922a1.992,1.992,0,0,0-.621-1.348,1.932,1.932,0,0,0-1.379-.527,2.023,2.023,0,0,0-1.707.793,3.724,3.724,0,0,0-.605,2.293v.273a3.65,3.65,0,0,0,.6,2.25A2.033,2.033,0,0,0,63.93,293.977ZM74.133,295a3.036,3.036,0,0,1-.2-.891,3.225,3.225,0,0,1-2.406,1.047,2.984,2.984,0,0,1-2.051-.707,2.287,2.287,0,0,1-.8-1.793,2.39,2.39,0,0,1,1-2.051,4.733,4.733,0,0,1,2.824-.73h1.406v-.664A1.623,1.623,0,0,0,73.453,288a1.821,1.821,0,0,0-1.336-.449,2.108,2.108,0,0,0-1.3.391,1.151,1.151,0,0,0-.523.945H68.844a2,2,0,0,1,.449-1.223,3.066,3.066,0,0,1,1.219-.934,4.1,4.1,0,0,1,1.691-.344,3.342,3.342,0,0,1,2.289.73,2.635,2.635,0,0,1,.859,2.012v3.891a4.757,4.757,0,0,0,.3,1.852V295Zm-2.4-1.1a2.54,2.54,0,0,0,1.289-.352,2.127,2.127,0,0,0,.883-.914V290.9H72.773q-2.656,0-2.656,1.555a1.316,1.316,0,0,0,.453,1.063A1.742,1.742,0,0,0,71.734,293.9Z" transform="translate(-13938 -19152.662)" fill="#12263f"/>
    <path id="Trazado_296827" data-name="Trazado 296827" d="M38.451,15H37V5.367l-2.914,1.07V5.125L38.224,3.57h.227Zm11.367-4.852a6.61,6.61,0,0,1-.867,3.773,3.084,3.084,0,0,1-2.711,1.234,3.107,3.107,0,0,1-2.7-1.207,6.274,6.274,0,0,1-.906-3.605V8.414a6.463,6.463,0,0,1,.867-3.727,3.108,3.108,0,0,1,2.719-1.219,3.136,3.136,0,0,1,2.7,1.176,6.237,6.237,0,0,1,.891,3.629ZM48.373,8.172A5.3,5.3,0,0,0,47.857,5.5a1.775,1.775,0,0,0-1.633-.84,1.751,1.751,0,0,0-1.617.836,5.171,5.171,0,0,0-.523,2.57v2.313a5.381,5.381,0,0,0,.535,2.723,1.771,1.771,0,0,0,1.621.879,1.747,1.747,0,0,0,1.59-.828,5.186,5.186,0,0,0,.543-2.609ZM54.046,10H53.2V4.381l-1.7.624V4.24l2.415-.907h.132ZM60.54,5.1a1.541,1.541,0,0,1-.262.884,1.783,1.783,0,0,1-.709.606,1.9,1.9,0,0,1,.823.652,1.64,1.64,0,0,1,.3.971,1.734,1.734,0,0,1-.581,1.372,2.547,2.547,0,0,1-3.062,0,1.742,1.742,0,0,1-.576-1.369,1.689,1.689,0,0,1,.294-.971,1.829,1.829,0,0,1,.813-.656,1.739,1.739,0,0,1-.7-.606,1.563,1.563,0,0,1-.255-.88,1.715,1.715,0,0,1,.538-1.331,2.283,2.283,0,0,1,2.832,0A1.711,1.711,0,0,1,60.54,5.1Zm-.688,3.094a1.223,1.223,0,0,0-.353-.907,1.252,1.252,0,0,0-.923-.351,1.186,1.186,0,0,0-1.258,1.258,1.178,1.178,0,0,0,.335.889,1.5,1.5,0,0,0,1.862,0A1.175,1.175,0,0,0,59.852,8.191ZM58.585,3.966a1.088,1.088,0,0,0-.8.308,1.13,1.13,0,0,0-.308.836,1.125,1.125,0,0,0,.3.818,1.2,1.2,0,0,0,1.618,0,1.125,1.125,0,0,0,.3-.818,1.125,1.125,0,0,0-.314-.825A1.072,1.072,0,0,0,58.585,3.966ZM36.47,55H35.017V45.367L32.1,46.438V45.125l4.141-1.555h.227Zm11.367-4.852a6.61,6.61,0,0,1-.867,3.773,3.084,3.084,0,0,1-2.711,1.234,3.107,3.107,0,0,1-2.7-1.207,6.274,6.274,0,0,1-.906-3.605v-1.93a6.463,6.463,0,0,1,.867-3.727,3.108,3.108,0,0,1,2.719-1.219,3.136,3.136,0,0,1,2.7,1.176,6.237,6.237,0,0,1,.891,3.629Zm-1.445-1.977a5.3,5.3,0,0,0-.516-2.676,1.775,1.775,0,0,0-1.633-.84,1.751,1.751,0,0,0-1.617.836,5.171,5.171,0,0,0-.523,2.57v2.313a5.381,5.381,0,0,0,.535,2.723,1.771,1.771,0,0,0,1.621.879,1.747,1.747,0,0,0,1.59-.828,5.186,5.186,0,0,0,.543-2.609ZM52.066,50h-.848V44.381l-1.7.624V44.24l2.415-.907h.132Zm2.857-3.327.337-3.308h3.4v.779H55.976l-.2,1.809a2.141,2.141,0,0,1,1.107-.287,1.831,1.831,0,0,1,1.44.6,2.349,2.349,0,0,1,.533,1.62A2.267,2.267,0,0,1,58.3,49.5a2.018,2.018,0,0,1-1.547.59A2.1,2.1,0,0,1,55.32,49.6a1.946,1.946,0,0,1-.633-1.349h.8a1.339,1.339,0,0,0,.406.859,1.261,1.261,0,0,0,.866.289,1.138,1.138,0,0,0,.923-.4,1.676,1.676,0,0,0,.335-1.107,1.539,1.539,0,0,0-.362-1.069,1.232,1.232,0,0,0-.964-.4,1.39,1.39,0,0,0-.866.242l-.223.182ZM36.47,95H35.017V85.367L32.1,86.438V85.125l4.141-1.555h.227Zm11.367-4.852a6.61,6.61,0,0,1-.867,3.773,3.084,3.084,0,0,1-2.711,1.234,3.107,3.107,0,0,1-2.7-1.207,6.274,6.274,0,0,1-.906-3.605v-1.93a6.463,6.463,0,0,1,.867-3.727,3.108,3.108,0,0,1,2.719-1.219,3.136,3.136,0,0,1,2.7,1.176,6.237,6.237,0,0,1,.891,3.629Zm-1.445-1.977a5.3,5.3,0,0,0-.516-2.676,1.775,1.775,0,0,0-1.633-.84,1.751,1.751,0,0,0-1.617.836,5.171,5.171,0,0,0-.523,2.57v2.313a5.381,5.381,0,0,0,.535,2.723,1.771,1.771,0,0,0,1.621.879,1.747,1.747,0,0,0,1.59-.828,5.186,5.186,0,0,0,.543-2.609ZM52.066,90h-.848V84.381l-1.7.624V84.24l2.415-.907h.132Zm6.817,0H54.536v-.606l2.3-2.552a5.456,5.456,0,0,0,.7-.941,1.571,1.571,0,0,0,.194-.75,1.191,1.191,0,0,0-.314-.852,1.1,1.1,0,0,0-.838-.333,1.3,1.3,0,0,0-.977.358,1.366,1.366,0,0,0-.349,1h-.843A1.957,1.957,0,0,1,55,83.839a2.188,2.188,0,0,1,1.579-.565,2.1,2.1,0,0,1,1.463.485,1.655,1.655,0,0,1,.538,1.292,3.8,3.8,0,0,1-1.249,2.333l-1.777,1.928h3.331ZM39.091,135H37.638v-9.633l-2.914,1.07v-1.312l4.141-1.555h.227Zm11.367-4.852a6.61,6.61,0,0,1-.867,3.773,3.6,3.6,0,0,1-5.406.027,6.274,6.274,0,0,1-.906-3.605v-1.93a6.463,6.463,0,0,1,.867-3.727,3.108,3.108,0,0,1,2.719-1.219,3.136,3.136,0,0,1,2.7,1.176,6.237,6.237,0,0,1,.891,3.629Zm-1.445-1.977A5.3,5.3,0,0,0,48.5,125.5a1.775,1.775,0,0,0-1.633-.84,1.751,1.751,0,0,0-1.617.836,5.171,5.171,0,0,0-.523,2.57v2.313a5.381,5.381,0,0,0,.535,2.723,1.771,1.771,0,0,0,1.621.879,1.747,1.747,0,0,0,1.59-.828,5.186,5.186,0,0,0,.543-2.609Zm6.134-1.088a2.063,2.063,0,0,1-.631.506,1.712,1.712,0,0,1-.8.191,1.768,1.768,0,0,1-1-.283,1.837,1.837,0,0,1-.658-.8,2.711,2.711,0,0,1-.232-1.132,2.762,2.762,0,0,1,.253-1.2,1.858,1.858,0,0,1,.718-.816,2.047,2.047,0,0,1,1.085-.283,1.853,1.853,0,0,1,1.552.736,3.21,3.21,0,0,1,.567,2.007v.246a4.289,4.289,0,0,1-.766,2.828,2.941,2.941,0,0,1-2.31.914h-.164v-.715h.178a2.008,2.008,0,0,0,2.215-2.206Zm-1.3,0a1.3,1.3,0,0,0,.782-.26,1.531,1.531,0,0,0,.522-.643v-.337a2.32,2.32,0,0,0-.36-1.349,1.1,1.1,0,0,0-1.8-.093,1.758,1.758,0,0,0-.337,1.123,1.829,1.829,0,0,0,.326,1.119A1.032,1.032,0,0,0,53.848,127.083ZM39.091,175H37.638v-9.633l-2.914,1.07v-1.312l4.141-1.555h.227Zm11.367-4.852a6.61,6.61,0,0,1-.867,3.773,3.6,3.6,0,0,1-5.406.027,6.274,6.274,0,0,1-.906-3.605v-1.93a6.463,6.463,0,0,1,.867-3.727,3.108,3.108,0,0,1,2.719-1.219,3.136,3.136,0,0,1,2.7,1.176,6.237,6.237,0,0,1,.891,3.629Zm-1.445-1.977A5.3,5.3,0,0,0,48.5,165.5a1.775,1.775,0,0,0-1.633-.84,1.751,1.751,0,0,0-1.617.836,5.171,5.171,0,0,0-.523,2.57v2.313a5.381,5.381,0,0,0,.535,2.723,1.771,1.771,0,0,0,1.621.879,1.747,1.747,0,0,0,1.59-.828,5.186,5.186,0,0,0,.543-2.609Zm6.211-4.811v.715h-.155a2.22,2.22,0,0,0-1.568.583,2.427,2.427,0,0,0-.674,1.59,1.8,1.8,0,0,1,1.431-.6,1.721,1.721,0,0,1,1.383.611,2.676,2.676,0,0,1-.041,3.217,1.922,1.922,0,0,1-1.5.615,1.894,1.894,0,0,1-1.545-.731,2.9,2.9,0,0,1-.592-1.884v-.324a4.368,4.368,0,0,1,.782-2.8,2.87,2.87,0,0,1,2.326-.991Zm-1.107,2.989a1.417,1.417,0,0,0-1.3.911v.31a2.177,2.177,0,0,0,.369,1.322,1.106,1.106,0,0,0,.921.5,1.072,1.072,0,0,0,.9-.419,2.014,2.014,0,0,0,0-2.2A1.059,1.059,0,0,0,54.117,166.35ZM39.091,215H37.638v-9.633l-2.914,1.07v-1.312l4.141-1.555h.227Zm11.367-4.852a6.61,6.61,0,0,1-.867,3.773,3.6,3.6,0,0,1-5.406.027,6.274,6.274,0,0,1-.906-3.605v-1.93a6.463,6.463,0,0,1,.867-3.727,3.108,3.108,0,0,1,2.719-1.219,3.136,3.136,0,0,1,2.7,1.176,6.237,6.237,0,0,1,.891,3.629Zm-1.445-1.977A5.3,5.3,0,0,0,48.5,205.5a1.775,1.775,0,0,0-1.633-.84,1.751,1.751,0,0,0-1.617.836,5.171,5.171,0,0,0-.523,2.57v2.313a5.381,5.381,0,0,0,.535,2.723,1.771,1.771,0,0,0,1.621.879,1.747,1.747,0,0,0,1.59-.828,5.186,5.186,0,0,0,.543-2.609Zm4.129-1.9h.633a1.392,1.392,0,0,0,.939-.314,1.051,1.051,0,0,0,.342-.825,1.029,1.029,0,0,0-1.162-1.167,1.209,1.209,0,0,0-.873.312,1.093,1.093,0,0,0-.326.827h-.843a1.693,1.693,0,0,1,.576-1.31,2.1,2.1,0,0,1,1.465-.522,2.075,2.075,0,0,1,1.472.5,1.794,1.794,0,0,1,.533,1.381,1.456,1.456,0,0,1-.28.838,1.692,1.692,0,0,1-.763.606,1.63,1.63,0,0,1,.845.574,1.6,1.6,0,0,1,.3.98,1.81,1.81,0,0,1-.583,1.417,2.184,2.184,0,0,1-1.517.524,2.242,2.242,0,0,1-1.52-.506,1.678,1.678,0,0,1-.586-1.335h.848a1.084,1.084,0,0,0,.342.838,1.3,1.3,0,0,0,.916.314,1.276,1.276,0,0,0,.934-.319,1.229,1.229,0,0,0,.324-.916,1.116,1.116,0,0,0-.355-.889,1.549,1.549,0,0,0-1.025-.319h-.633ZM39.091,255H37.638v-9.633l-2.914,1.07v-1.312l4.141-1.555h.227Zm11.367-4.852a6.61,6.61,0,0,1-.867,3.773,3.6,3.6,0,0,1-5.406.027,6.274,6.274,0,0,1-.906-3.605v-1.93a6.463,6.463,0,0,1,.867-3.727,3.108,3.108,0,0,1,2.719-1.219,3.136,3.136,0,0,1,2.7,1.176,6.237,6.237,0,0,1,.891,3.629Zm-1.445-1.977A5.3,5.3,0,0,0,48.5,245.5a1.775,1.775,0,0,0-1.633-.84,1.751,1.751,0,0,0-1.617.836,5.171,5.171,0,0,0-.523,2.57v2.313a5.381,5.381,0,0,0,.535,2.723,1.771,1.771,0,0,0,1.621.879,1.747,1.747,0,0,0,1.59-.828,5.186,5.186,0,0,0,.543-2.609ZM56.263,250H51.915v-.606l2.3-2.552a5.457,5.457,0,0,0,.7-.941,1.571,1.571,0,0,0,.194-.75,1.191,1.191,0,0,0-.314-.852,1.1,1.1,0,0,0-.838-.333,1.3,1.3,0,0,0-.977.358,1.366,1.366,0,0,0-.349,1h-.843a1.957,1.957,0,0,1,.59-1.481,2.188,2.188,0,0,1,1.579-.565,2.1,2.1,0,0,1,1.463.485,1.656,1.656,0,0,1,.538,1.292,3.8,3.8,0,0,1-1.249,2.333l-1.777,1.928h3.331ZM39.091,295H37.638v-9.633l-2.914,1.07v-1.312l4.141-1.555h.227Zm11.367-4.852a6.61,6.61,0,0,1-.867,3.773,3.6,3.6,0,0,1-5.406.027,6.274,6.274,0,0,1-.906-3.605v-1.93a6.463,6.463,0,0,1,.867-3.727,3.108,3.108,0,0,1,2.719-1.219,3.136,3.136,0,0,1,2.7,1.176,6.237,6.237,0,0,1,.891,3.629Zm-1.445-1.977A5.3,5.3,0,0,0,48.5,285.5a1.775,1.775,0,0,0-1.633-.84,1.751,1.751,0,0,0-1.617.836,5.171,5.171,0,0,0-.523,2.57v2.313a5.381,5.381,0,0,0,.535,2.723,1.771,1.771,0,0,0,1.621.879,1.747,1.747,0,0,0,1.59-.828,5.186,5.186,0,0,0,.543-2.609ZM54.686,290h-.848v-5.619l-1.7.624v-.766l2.415-.907h.132Z" transform="translate(-13695 -19152.662)" fill="#12263f"/>
    <path id="Trazado_296841" data-name="Trazado 296841" d="M28.784,15H27.331V5.367l-2.914,1.07V5.125L28.557,3.57h.227Zm11.367-4.852a6.61,6.61,0,0,1-.867,3.773,3.084,3.084,0,0,1-2.711,1.234,3.107,3.107,0,0,1-2.7-1.207,6.274,6.274,0,0,1-.906-3.605V8.414a6.463,6.463,0,0,1,.867-3.727,3.108,3.108,0,0,1,2.719-1.219,3.136,3.136,0,0,1,2.7,1.176,6.237,6.237,0,0,1,.891,3.629ZM38.706,8.172A5.3,5.3,0,0,0,38.19,5.5a1.775,1.775,0,0,0-1.633-.84,1.751,1.751,0,0,0-1.617.836,5.171,5.171,0,0,0-.523,2.57v2.313a5.381,5.381,0,0,0,.535,2.723,1.771,1.771,0,0,0,1.621.879,1.747,1.747,0,0,0,1.59-.828,5.186,5.186,0,0,0,.543-2.609Zm4.744-.646H41.226V6.837H43.45ZM46.954,10h-.848V4.381l-1.7.624V4.24l2.415-.907h.132ZM26.8,55H25.35V45.367l-2.914,1.07V45.125l4.141-1.555H26.8ZM38.17,50.148a6.61,6.61,0,0,1-.867,3.773,3.084,3.084,0,0,1-2.711,1.234,3.107,3.107,0,0,1-2.7-1.207,6.274,6.274,0,0,1-.906-3.605v-1.93a6.463,6.463,0,0,1,.867-3.727,3.108,3.108,0,0,1,2.719-1.219,3.136,3.136,0,0,1,2.7,1.176,6.237,6.237,0,0,1,.891,3.629Zm-1.445-1.977A5.3,5.3,0,0,0,36.21,45.5a1.775,1.775,0,0,0-1.633-.84,1.751,1.751,0,0,0-1.617.836,5.171,5.171,0,0,0-.523,2.57v2.313a5.381,5.381,0,0,0,.535,2.723,1.771,1.771,0,0,0,1.621.879,1.747,1.747,0,0,0,1.59-.828,5.186,5.186,0,0,0,.543-2.609Zm4.744-.646H39.245v-.688h2.224ZM46.55,50H42.2v-.606l2.3-2.552a5.457,5.457,0,0,0,.7-.941,1.571,1.571,0,0,0,.194-.75,1.191,1.191,0,0,0-.314-.852,1.1,1.1,0,0,0-.838-.333,1.3,1.3,0,0,0-.977.358,1.366,1.366,0,0,0-.349,1h-.843a1.957,1.957,0,0,1,.59-1.481,2.188,2.188,0,0,1,1.579-.565,2.1,2.1,0,0,1,1.463.485,1.655,1.655,0,0,1,.538,1.292A3.8,3.8,0,0,1,45,47.384l-1.777,1.928H46.55ZM26.8,95H25.35V85.367l-2.914,1.07V85.125l4.141-1.555H26.8ZM38.17,90.148a6.61,6.61,0,0,1-.867,3.773,3.084,3.084,0,0,1-2.711,1.234,3.107,3.107,0,0,1-2.7-1.207,6.274,6.274,0,0,1-.906-3.605v-1.93a6.463,6.463,0,0,1,.867-3.727,3.108,3.108,0,0,1,2.719-1.219,3.136,3.136,0,0,1,2.7,1.176,6.237,6.237,0,0,1,.891,3.629Zm-1.445-1.977A5.3,5.3,0,0,0,36.21,85.5a1.775,1.775,0,0,0-1.633-.84,1.751,1.751,0,0,0-1.617.836,5.171,5.171,0,0,0-.523,2.57v2.313a5.381,5.381,0,0,0,.535,2.723,1.771,1.771,0,0,0,1.621.879,1.747,1.747,0,0,0,1.59-.828,5.186,5.186,0,0,0,.543-2.609Zm4.744-.646H39.245v-.688h2.224Zm1.96-1.253h.633A1.392,1.392,0,0,0,45,85.958a1.051,1.051,0,0,0,.342-.825,1.029,1.029,0,0,0-1.162-1.167,1.209,1.209,0,0,0-.873.312,1.092,1.092,0,0,0-.326.827h-.843a1.693,1.693,0,0,1,.576-1.31,2.1,2.1,0,0,1,1.465-.522,2.075,2.075,0,0,1,1.472.5,1.794,1.794,0,0,1,.533,1.381,1.456,1.456,0,0,1-.28.838,1.692,1.692,0,0,1-.763.606,1.631,1.631,0,0,1,.845.574,1.6,1.6,0,0,1,.3.98,1.81,1.81,0,0,1-.583,1.417,2.184,2.184,0,0,1-1.517.524,2.242,2.242,0,0,1-1.52-.506,1.678,1.678,0,0,1-.586-1.335h.848a1.084,1.084,0,0,0,.342.838,1.3,1.3,0,0,0,.916.314,1.276,1.276,0,0,0,.934-.319,1.229,1.229,0,0,0,.324-.916,1.116,1.116,0,0,0-.355-.889,1.549,1.549,0,0,0-1.025-.319h-.633ZM26.8,135H25.35v-9.633l-2.914,1.07v-1.312l4.141-1.555H26.8Zm11.367-4.852a6.61,6.61,0,0,1-.867,3.773,3.084,3.084,0,0,1-2.711,1.234,3.107,3.107,0,0,1-2.7-1.207,6.274,6.274,0,0,1-.906-3.605v-1.93a6.463,6.463,0,0,1,.867-3.727,3.108,3.108,0,0,1,2.719-1.219,3.136,3.136,0,0,1,2.7,1.176,6.237,6.237,0,0,1,.891,3.629Zm-1.445-1.977a5.3,5.3,0,0,0-.516-2.676,1.775,1.775,0,0,0-1.633-.84,1.751,1.751,0,0,0-1.617.836,5.171,5.171,0,0,0-.523,2.57v2.313a5.381,5.381,0,0,0,.535,2.723,1.771,1.771,0,0,0,1.621.879,1.747,1.747,0,0,0,1.59-.828,5.186,5.186,0,0,0,.543-2.609Zm4.744,9.354H39.245v-.688h2.224Zm4.042-4.165v.715h-.155a2.22,2.22,0,0,0-1.568.583,2.427,2.427,0,0,0-.674,1.59,1.8,1.8,0,0,1,1.431-.6,1.721,1.721,0,0,1,1.383.611,2.676,2.676,0,0,1-.041,3.217,1.922,1.922,0,0,1-1.5.615,1.894,1.894,0,0,1-1.545-.731,2.9,2.9,0,0,1-.592-1.884v-.324a4.368,4.368,0,0,1,.782-2.8,2.87,2.87,0,0,1,2.326-.991ZM44.4,136.35a1.417,1.417,0,0,0-1.3.911v.31a2.177,2.177,0,0,0,.369,1.322,1.106,1.106,0,0,0,.921.5,1.072,1.072,0,0,0,.9-.419,2.014,2.014,0,0,0,0-2.2A1.059,1.059,0,0,0,44.4,136.35ZM26.8,175H25.35v-9.633l-2.914,1.07v-1.312l4.141-1.555H26.8Zm11.367-4.852a6.61,6.61,0,0,1-.867,3.773,3.084,3.084,0,0,1-2.711,1.234,3.107,3.107,0,0,1-2.7-1.207,6.274,6.274,0,0,1-.906-3.605v-1.93a6.463,6.463,0,0,1,.867-3.727,3.108,3.108,0,0,1,2.719-1.219,3.136,3.136,0,0,1,2.7,1.176,6.237,6.237,0,0,1,.891,3.629Zm-1.445-1.977a5.3,5.3,0,0,0-.516-2.676,1.775,1.775,0,0,0-1.633-.84,1.751,1.751,0,0,0-1.617.836,5.171,5.171,0,0,0-.523,2.57v2.313a5.381,5.381,0,0,0,.535,2.723,1.771,1.771,0,0,0,1.621.879,1.747,1.747,0,0,0,1.59-.828,5.186,5.186,0,0,0,.543-2.609Zm4.744-.646H39.245v-.688h2.224Zm3.965-.442a2.063,2.063,0,0,1-.631.506,1.712,1.712,0,0,1-.8.191,1.768,1.768,0,0,1-1-.283,1.837,1.837,0,0,1-.658-.8,2.711,2.711,0,0,1-.232-1.132,2.762,2.762,0,0,1,.253-1.2,1.858,1.858,0,0,1,.718-.816,2.047,2.047,0,0,1,1.085-.283,1.853,1.853,0,0,1,1.552.736,3.21,3.21,0,0,1,.567,2.007v.246a4.289,4.289,0,0,1-.766,2.828,2.941,2.941,0,0,1-2.31.914h-.164v-.715h.178a2.008,2.008,0,0,0,2.215-2.206Zm-1.3,0a1.3,1.3,0,0,0,.782-.26,1.531,1.531,0,0,0,.522-.643v-.337a2.32,2.32,0,0,0-.36-1.349,1.1,1.1,0,0,0-1.8-.093,1.758,1.758,0,0,0-.337,1.123,1.829,1.829,0,0,0,.326,1.119A1.032,1.032,0,0,0,44.135,167.083ZM24.183,215H22.73v-9.633l-2.914,1.07v-1.312l4.141-1.555h.227Zm11.367-4.852a6.61,6.61,0,0,1-.867,3.773,3.084,3.084,0,0,1-2.711,1.234,3.107,3.107,0,0,1-2.7-1.207,6.274,6.274,0,0,1-.906-3.605v-1.93a6.463,6.463,0,0,1,.867-3.727,3.108,3.108,0,0,1,2.719-1.219,3.136,3.136,0,0,1,2.7,1.176,6.237,6.237,0,0,1,.891,3.629ZM34.1,208.172a5.3,5.3,0,0,0-.516-2.676,1.775,1.775,0,0,0-1.633-.84,1.751,1.751,0,0,0-1.617.836,5.171,5.171,0,0,0-.523,2.57v2.313a5.381,5.381,0,0,0,.535,2.723,1.771,1.771,0,0,0,1.621.879,1.747,1.747,0,0,0,1.59-.828,5.186,5.186,0,0,0,.543-2.609Zm4.744-.646H36.625v-.688h2.224Zm3.5,2.474h-.848v-5.619l-1.7.624v-.766l2.415-.907h.132Zm6.817,0H44.823v-.606l2.3-2.552a5.457,5.457,0,0,0,.7-.941,1.571,1.571,0,0,0,.194-.75,1.191,1.191,0,0,0-.314-.852,1.1,1.1,0,0,0-.838-.333,1.3,1.3,0,0,0-.977.358,1.366,1.366,0,0,0-.349,1H44.7a1.957,1.957,0,0,1,.59-1.481,2.188,2.188,0,0,1,1.579-.565,2.1,2.1,0,0,1,1.463.485,1.656,1.656,0,0,1,.538,1.292,3.8,3.8,0,0,1-1.249,2.333l-1.777,1.928h3.331ZM24.183,255H22.73v-9.633l-2.914,1.07v-1.312l4.141-1.555h.227Zm11.367-4.852a6.61,6.61,0,0,1-.867,3.773,3.084,3.084,0,0,1-2.711,1.234,3.107,3.107,0,0,1-2.7-1.207,6.274,6.274,0,0,1-.906-3.605v-1.93a6.463,6.463,0,0,1,.867-3.727,3.108,3.108,0,0,1,2.719-1.219,3.136,3.136,0,0,1,2.7,1.176,6.237,6.237,0,0,1,.891,3.629ZM34.1,248.172a5.3,5.3,0,0,0-.516-2.676,1.775,1.775,0,0,0-1.633-.84,1.751,1.751,0,0,0-1.617.836,5.171,5.171,0,0,0-.523,2.57v2.313a5.381,5.381,0,0,0,.535,2.723,1.771,1.771,0,0,0,1.621.879,1.747,1.747,0,0,0,1.59-.828,5.186,5.186,0,0,0,.543-2.609Zm4.744-.646H36.625v-.688h2.224Zm3.5,2.474h-.848v-5.619l-1.7.624v-.766l2.415-.907h.132Zm2.857-3.327.337-3.308h3.4v.779H46.263l-.2,1.809a2.141,2.141,0,0,1,1.107-.287,1.831,1.831,0,0,1,1.44.6,2.349,2.349,0,0,1,.533,1.62,2.267,2.267,0,0,1-.554,1.615,2.018,2.018,0,0,1-1.547.59,2.1,2.1,0,0,1-1.435-.488,1.946,1.946,0,0,1-.633-1.349h.8a1.339,1.339,0,0,0,.406.859,1.261,1.261,0,0,0,.866.289,1.138,1.138,0,0,0,.923-.4,1.676,1.676,0,0,0,.335-1.107,1.539,1.539,0,0,0-.362-1.069,1.232,1.232,0,0,0-.964-.4,1.39,1.39,0,0,0-.866.242l-.223.182ZM24.183,295H22.73v-9.633l-2.914,1.07v-1.312l4.141-1.555h.227Zm11.367-4.852a6.61,6.61,0,0,1-.867,3.773,3.084,3.084,0,0,1-2.711,1.234,3.107,3.107,0,0,1-2.7-1.207,6.274,6.274,0,0,1-.906-3.605v-1.93a6.463,6.463,0,0,1,.867-3.727,3.108,3.108,0,0,1,2.719-1.219,3.136,3.136,0,0,1,2.7,1.176,6.237,6.237,0,0,1,.891,3.629ZM34.1,288.172a5.3,5.3,0,0,0-.516-2.676,1.775,1.775,0,0,0-1.633-.84,1.751,1.751,0,0,0-1.617.836,5.171,5.171,0,0,0-.523,2.57v2.313a5.381,5.381,0,0,0,.535,2.723,1.771,1.771,0,0,0,1.621.879,1.747,1.747,0,0,0,1.59-.828,5.186,5.186,0,0,0,.543-2.609Zm4.744-.646H36.625v-.688h2.224Zm3.5,2.474h-.848v-5.619l-1.7.624v-.766l2.415-.907h.132Zm6.494-4.9a1.541,1.541,0,0,1-.262.884,1.783,1.783,0,0,1-.709.606,1.9,1.9,0,0,1,.823.652,1.64,1.64,0,0,1,.3.971,1.734,1.734,0,0,1-.581,1.372,2.547,2.547,0,0,1-3.062,0,1.742,1.742,0,0,1-.576-1.369,1.689,1.689,0,0,1,.294-.971,1.829,1.829,0,0,1,.813-.656,1.739,1.739,0,0,1-.7-.606,1.563,1.563,0,0,1-.255-.879,1.715,1.715,0,0,1,.538-1.331,2.283,2.283,0,0,1,2.832,0A1.711,1.711,0,0,1,48.847,285.1Zm-.688,3.094a1.223,1.223,0,0,0-.353-.907,1.253,1.253,0,0,0-.923-.351,1.186,1.186,0,0,0-1.258,1.258,1.178,1.178,0,0,0,.335.889,1.5,1.5,0,0,0,1.862,0A1.175,1.175,0,0,0,48.159,288.191Zm-1.267-4.224a1.088,1.088,0,0,0-.8.308,1.273,1.273,0,0,0,0,1.654,1.2,1.2,0,0,0,1.618,0,1.247,1.247,0,0,0-.011-1.643A1.072,1.072,0,0,0,46.892,283.966Z" transform="translate(-13336 -19152.662)" fill="#12263f"/>
    <path id="Trazado_296822" data-name="Trazado 296822" d="M0,0V342" transform="translate(-13806 -19179.662)" fill="none" stroke="#afafaf" stroke-linecap="round" stroke-width="1"/>
    <path id="Trazado_296826" data-name="Trazado 296826" d="M0,0V342" transform="translate(-13710 -19177.662)" fill="none" stroke="#afafaf" stroke-linecap="round" stroke-width="1"/>
    <path id="Trazado_296836" data-name="Trazado 296836" d="M0,0V342" transform="translate(-13446 -19177.662)" fill="none" stroke="#afafaf" stroke-linecap="round" stroke-width="1"/>
    <path id="Trazado_296839" data-name="Trazado 296839" d="M0,0V342" transform="translate(-13366 -19177.662)" fill="none" stroke="#afafaf" stroke-linecap="round" stroke-width="1"/>
    <path id="Trazado_296830" data-name="Trazado 296830" d="M0,0V342" transform="translate(-13590 -19177.662)" fill="none" stroke="#afafaf" stroke-linecap="round" stroke-width="1"/>
    <path id="Trazado_296824" data-name="Trazado 296824" d="M41.184,9.742h-4.93v4.031H41.98V15H34.754V3.625H41.9V4.852H36.254V8.516h4.93Zm-7.41,40.8V55h-1.5V43.625h4.2a4.215,4.215,0,0,1,2.926.953A3.231,3.231,0,0,1,40.453,47.1a3.189,3.189,0,0,1-1.035,2.551,4.4,4.4,0,0,1-2.965.895Zm0-1.227h2.7a2.7,2.7,0,0,0,1.844-.567,2.075,2.075,0,0,0,.641-1.64,2.143,2.143,0,0,0-.641-1.628,2.525,2.525,0,0,0-1.758-.634H33.773Zm6.633,35.531H36.75V95H35.258V84.852H31.609V83.625h8.8Zm-.137,48.656a3.465,3.465,0,0,1-1.613,1.238,6.517,6.517,0,0,1-2.41.41,4.674,4.674,0,0,1-2.469-.652,4.346,4.346,0,0,1-1.668-1.855,6.408,6.408,0,0,1-.605-2.789v-.992a5.982,5.982,0,0,1,1.2-3.984,4.179,4.179,0,0,1,3.371-1.414,4.316,4.316,0,0,1,2.867.91,3.965,3.965,0,0,1,1.328,2.582h-1.5a2.48,2.48,0,0,0-2.687-2.266,2.655,2.655,0,0,0-2.285,1.06,5.173,5.173,0,0,0-.785,3.069v.93a4.848,4.848,0,0,0,.875,3.046,2.836,2.836,0,0,0,2.367,1.13,5.229,5.229,0,0,0,1.477-.187,2.283,2.283,0,0,0,1.047-.631v-2.549H36.145v-1.227H40.27Zm-8,30.117,3.719,9.281,3.719-9.281h1.945V175h-1.5v-4.43l.141-4.781L36.563,175H35.414l-3.727-9.187.148,4.758V175h-1.5V163.625ZM35.2,209.711,33.8,211.156V215H32.3V203.625h1.5v5.625l5.055-5.625h1.813L36.2,208.648,41.023,215h-1.8ZM40.359,255H38.852v-5.258H33.117V255h-1.5V243.625h1.5v4.891h5.734v-4.891h1.508Zm-8.285,40V283.625h3.211a5.169,5.169,0,0,1,2.625.656,4.438,4.438,0,0,1,1.762,1.867,6.077,6.077,0,0,1,.629,2.781v.727a6.1,6.1,0,0,1-.621,2.82,4.369,4.369,0,0,1-1.773,1.859,5.5,5.5,0,0,1-2.684.664Zm1.5-10.148v8.922h1.578a3.434,3.434,0,0,0,2.7-1.079,4.458,4.458,0,0,0,.965-3.073v-.665a4.529,4.529,0,0,0-.91-3.014,3.239,3.239,0,0,0-2.582-1.091Z" transform="translate(-13797 -19152.662)" fill="#12263f"/>
    <path id="Trazado_296837" data-name="Trazado 296837" d="M31.211,10.7a4.952,4.952,0,0,1,.922-3.129A3.137,3.137,0,0,1,36.9,7.406V3h1.445V15H37.016l-.07-.906a2.943,2.943,0,0,1-2.414,1.063,2.887,2.887,0,0,1-2.395-1.2,5.008,5.008,0,0,1-.926-3.141Zm1.445.164a3.749,3.749,0,0,0,.594,2.25,1.92,1.92,0,0,0,1.641.813A2.108,2.108,0,0,0,36.9,12.7V8.813a2.125,2.125,0,0,0-1.992-1.2,1.929,1.929,0,0,0-1.656.82A4.128,4.128,0,0,0,32.656,10.867ZM33.3,53.977a2.082,2.082,0,0,0,1.352-.469,1.649,1.649,0,0,0,.641-1.172h1.367a2.621,2.621,0,0,1-.5,1.383,3.293,3.293,0,0,1-1.23,1.047,3.55,3.55,0,0,1-1.629.391A3.482,3.482,0,0,1,30.551,54a4.59,4.59,0,0,1-1.02-3.152v-.242a5.089,5.089,0,0,1,.453-2.2,3.451,3.451,0,0,1,1.3-1.492,3.7,3.7,0,0,1,2-.531,3.39,3.39,0,0,1,2.363.852,3.043,3.043,0,0,1,1,2.211H35.289a1.992,1.992,0,0,0-.621-1.348,1.932,1.932,0,0,0-1.379-.527,2.023,2.023,0,0,0-1.707.793,3.724,3.724,0,0,0-.605,2.293v.273a3.65,3.65,0,0,0,.6,2.25A2.033,2.033,0,0,0,33.3,53.977Zm-4.855,32.57.039.938a3.122,3.122,0,0,1,2.508-1.094A2.417,2.417,0,0,1,33.4,87.75a3.2,3.2,0,0,1,1.1-.984,3.242,3.242,0,0,1,1.6-.375q2.781,0,2.828,2.945V95H37.48V89.422a1.941,1.941,0,0,0-.414-1.355,1.823,1.823,0,0,0-1.391-.449,1.916,1.916,0,0,0-1.336.48,1.949,1.949,0,0,0-.617,1.293V95H32.27V89.461a1.613,1.613,0,0,0-1.8-1.844,1.934,1.934,0,0,0-1.945,1.211V95H27.074V86.547Zm2.676,40v4.945a3.517,3.517,0,0,0,.41,1.883,1.452,1.452,0,0,0,1.309.609,1.968,1.968,0,0,0,2.039-1.187v-6.25h1.453V135h-1.3l-.07-.9a2.35,2.35,0,0,1-2.055,1.055,2.568,2.568,0,0,1-1.781-.57v3.664H29.672v-11.7Zm-.07,40,.047,1.063a3.08,3.08,0,0,1,2.531-1.219q2.68,0,2.7,3.023V175H34.883v-5.594a1.946,1.946,0,0,0-.418-1.352,1.675,1.675,0,0,0-1.277-.437,2.086,2.086,0,0,0-1.234.375,2.546,2.546,0,0,0-.828.984V175H29.68v-8.453Zm5.7,44.32a5.062,5.062,0,0,1-.883,3.109,2.829,2.829,0,0,1-2.391,1.18,3.1,3.1,0,0,1-2.422-.977v4.07H29.605v-11.7h1.32l.07.938a2.977,2.977,0,0,1,2.453-1.094,2.882,2.882,0,0,1,2.41,1.148,5.117,5.117,0,0,1,.887,3.2ZM35.3,210.7a3.735,3.735,0,0,0-.609-2.258,1.963,1.963,0,0,0-1.672-.828,2.125,2.125,0,0,0-1.969,1.164v4.039a2.129,2.129,0,0,0,1.984,1.156,1.954,1.954,0,0,0,1.652-.824A4.077,4.077,0,0,0,35.3,210.7ZM32.027,255v-7.336H30.691v-1.117h1.336v-.867a2.878,2.878,0,0,1,.727-2.1,2.745,2.745,0,0,1,2.055-.742,3.816,3.816,0,0,1,.992.132l-.078,1.165a4.151,4.151,0,0,0-.781-.07,1.41,1.41,0,0,0-1.086.411,1.669,1.669,0,0,0-.383,1.18v.893h1.8v1.117h-1.8V255Zm2.934,40a3.036,3.036,0,0,1-.2-.891,3.225,3.225,0,0,1-2.406,1.047,2.984,2.984,0,0,1-2.051-.707,2.287,2.287,0,0,1-.8-1.793,2.39,2.39,0,0,1,1-2.051,4.733,4.733,0,0,1,2.824-.73h1.406v-.664A1.623,1.623,0,0,0,34.281,288a1.821,1.821,0,0,0-1.336-.449,2.108,2.108,0,0,0-1.3.391,1.151,1.151,0,0,0-.523.945H29.672a2,2,0,0,1,.449-1.223,3.066,3.066,0,0,1,1.219-.934,4.1,4.1,0,0,1,1.691-.344,3.342,3.342,0,0,1,2.289.73,2.635,2.635,0,0,1,.859,2.012v3.891a4.757,4.757,0,0,0,.3,1.852V295Zm-2.4-1.1a2.54,2.54,0,0,0,1.289-.352,2.127,2.127,0,0,0,.883-.914V290.9H33.6q-2.656,0-2.656,1.555a1.316,1.316,0,0,0,.453,1.063A1.742,1.742,0,0,0,32.563,293.9Z" transform="translate(-13439 -19152.662)" fill="#12263f"/>
    <path id="Trazado_296832" data-name="Trazado 296832" d="M44.688,15V3.625H47.9a5.169,5.169,0,0,1,2.625.656,4.438,4.438,0,0,1,1.762,1.867,6.078,6.078,0,0,1,.629,2.781v.727a6.1,6.1,0,0,1-.621,2.82,4.369,4.369,0,0,1-1.773,1.859A5.5,5.5,0,0,1,47.836,15Zm1.5-10.148v8.922h1.578a3.434,3.434,0,0,0,2.7-1.079,4.458,4.458,0,0,0,.965-3.073V8.957a4.529,4.529,0,0,0-.91-3.014,3.239,3.239,0,0,0-2.582-1.091Zm12.273,10.3a3.693,3.693,0,0,1-2.8-1.129,4.19,4.19,0,0,1-1.078-3.02v-.266a5.073,5.073,0,0,1,.48-2.246A3.748,3.748,0,0,1,56.41,6.949a3.378,3.378,0,0,1,1.871-.559,3.166,3.166,0,0,1,2.563,1.086,4.7,4.7,0,0,1,.914,3.109v.6H56.031a3,3,0,0,0,.73,2.02,2.3,2.3,0,0,0,1.777.77,2.517,2.517,0,0,0,1.3-.312,3.259,3.259,0,0,0,.93-.828l.883.688A3.55,3.55,0,0,1,58.461,15.156Zm-.18-7.578a1.928,1.928,0,0,0-1.469.637A3.1,3.1,0,0,0,56.078,10h4.234V9.891a2.753,2.753,0,0,0-.594-1.707A1.815,1.815,0,0,0,58.281,7.578Zm8.539,6.4a2.082,2.082,0,0,0,1.352-.469,1.649,1.649,0,0,0,.641-1.172H70.18a2.621,2.621,0,0,1-.5,1.383,3.293,3.293,0,0,1-1.23,1.047,3.55,3.55,0,0,1-1.629.391A3.482,3.482,0,0,1,64.074,14a4.59,4.59,0,0,1-1.02-3.152v-.242a5.089,5.089,0,0,1,.453-2.2,3.451,3.451,0,0,1,1.3-1.492,3.7,3.7,0,0,1,2-.531,3.39,3.39,0,0,1,2.363.852,3.043,3.043,0,0,1,1,2.211H68.813a1.992,1.992,0,0,0-.621-1.348,1.932,1.932,0,0,0-1.379-.527,2.023,2.023,0,0,0-1.707.793,3.724,3.724,0,0,0-.605,2.293v.273a3.65,3.65,0,0,0,.6,2.25A2.033,2.033,0,0,0,66.82,13.977ZM73.375,15H71.93V6.547h1.445ZM71.813,4.3a.863.863,0,0,1,.215-.594.807.807,0,0,1,.637-.242.819.819,0,0,1,.641.242.854.854,0,0,1,.219.594.826.826,0,0,1-.219.586.834.834,0,0,1-.641.234.821.821,0,0,1-.637-.234A.834.834,0,0,1,71.813,4.3ZM48.273,51.391a4.185,4.185,0,0,1-1.332,2.785,4.365,4.365,0,0,1-2.98.98,4.008,4.008,0,0,1-3.23-1.445,5.815,5.815,0,0,1-1.215-3.867V48.75a6.481,6.481,0,0,1,.566-2.789,4.231,4.231,0,0,1,1.605-1.848,4.47,4.47,0,0,1,2.406-.645A4.11,4.11,0,0,1,47,44.48a4.235,4.235,0,0,1,1.273,2.8H46.766a3.268,3.268,0,0,0-.848-1.975,2.565,2.565,0,0,0-1.824-.611,2.684,2.684,0,0,0-2.254,1.063,4.882,4.882,0,0,0-.816,3.026v1.1a5.018,5.018,0,0,0,.773,2.948,2.5,2.5,0,0,0,2.164,1.095,2.886,2.886,0,0,0,1.918-.566,3.143,3.143,0,0,0,.887-1.973ZM53.6,55.156a3.693,3.693,0,0,1-2.8-1.129,4.19,4.19,0,0,1-1.078-3.02v-.266a5.073,5.073,0,0,1,.48-2.246,3.748,3.748,0,0,1,1.344-1.547,3.378,3.378,0,0,1,1.871-.559,3.166,3.166,0,0,1,2.563,1.086,4.7,4.7,0,0,1,.914,3.109v.6H51.172a3,3,0,0,0,.73,2.02,2.3,2.3,0,0,0,1.777.77,2.517,2.517,0,0,0,1.3-.312,3.258,3.258,0,0,0,.93-.828l.883.688A3.55,3.55,0,0,1,53.6,55.156Zm-.18-7.578a1.928,1.928,0,0,0-1.469.637A3.1,3.1,0,0,0,51.219,50h4.234v-.109a2.753,2.753,0,0,0-.594-1.707A1.815,1.815,0,0,0,53.422,47.578Zm6.516-1.031.047,1.063a3.08,3.08,0,0,1,2.531-1.219q2.68,0,2.7,3.023V55H63.773V49.406a1.946,1.946,0,0,0-.418-1.352,1.675,1.675,0,0,0-1.277-.437,2.086,2.086,0,0,0-1.234.375,2.546,2.546,0,0,0-.828.984V55H58.57V46.547ZM69.359,44.5v2.047h1.578v1.117H69.359v5.249a1.173,1.173,0,0,0,.211.763.888.888,0,0,0,.719.254,3.5,3.5,0,0,0,.688-.094V55a4.215,4.215,0,0,1-1.109.155,1.8,1.8,0,0,1-1.461-.586,2.517,2.517,0,0,1-.492-1.664V47.664H66.375V46.547h1.539V44.5ZM74.2,55H72.75V46.547H74.2ZM72.633,44.3a.863.863,0,0,1,.215-.594.807.807,0,0,1,.637-.242.819.819,0,0,1,.641.242.854.854,0,0,1,.219.594.826.826,0,0,1-.219.586.834.834,0,0,1-.641.234.821.821,0,0,1-.637-.234A.834.834,0,0,1,72.633,44.3ZM47.449,83.625l3.719,9.281,3.719-9.281h1.945V95h-1.5V90.57l.141-4.781L51.738,95H50.59l-3.727-9.187.148,4.758V95h-1.5V83.625ZM60.824,95H59.379V86.547h1.445ZM59.262,84.3a.863.863,0,0,1,.215-.594.807.807,0,0,1,.637-.242.819.819,0,0,1,.641.242.854.854,0,0,1,.219.594.826.826,0,0,1-.219.586.834.834,0,0,1-.641.234.821.821,0,0,1-.637-.234A.834.834,0,0,1,59.262,84.3ZM64.707,95H63.262V83h1.445Zm3.883,0H67.145V86.547H68.59ZM67.027,84.3a.863.863,0,0,1,.215-.594.807.807,0,0,1,.637-.242.819.819,0,0,1,.641.242.854.854,0,0,1,.219.594.826.826,0,0,1-.219.586.834.834,0,0,1-.641.234.821.821,0,0,1-.637-.234A.834.834,0,0,1,67.027,84.3Zm-27.074,39.32,3.719,9.281,3.719-9.281h1.945V135h-1.5v-4.43l.141-4.781L44.242,135H43.094l-3.727-9.187.148,4.758V135h-1.5V123.625ZM53.328,135H51.883v-8.453h1.445Zm-1.562-10.7a.863.863,0,0,1,.215-.594.807.807,0,0,1,.637-.242.819.819,0,0,1,.641.242.854.854,0,0,1,.219.594.826.826,0,0,1-.219.586.834.834,0,0,1-.641.234.821.821,0,0,1-.637-.234A.834.834,0,0,1,51.766,124.3Zm7.266,9.672a2.082,2.082,0,0,0,1.352-.469,1.649,1.649,0,0,0,.641-1.172h1.367a2.621,2.621,0,0,1-.5,1.383,3.293,3.293,0,0,1-1.23,1.047,3.55,3.55,0,0,1-1.629.391A3.482,3.482,0,0,1,56.285,134a4.59,4.59,0,0,1-1.02-3.152v-.242a5.089,5.089,0,0,1,.453-2.2,3.451,3.451,0,0,1,1.3-1.492,3.7,3.7,0,0,1,2-.531,3.39,3.39,0,0,1,2.363.852,3.043,3.043,0,0,1,1,2.211H61.023a1.992,1.992,0,0,0-.621-1.348,1.932,1.932,0,0,0-1.379-.527,2.023,2.023,0,0,0-1.707.793,3.724,3.724,0,0,0-.605,2.293v.273a3.65,3.65,0,0,0,.6,2.25A2.033,2.033,0,0,0,59.031,133.977Zm9.07-6.133a4.331,4.331,0,0,0-.711-.055A1.9,1.9,0,0,0,65.461,129v6H64.016v-8.453h1.406l.023.977a2.251,2.251,0,0,1,2.016-1.133,1.477,1.477,0,0,1,.641.109Zm.789,2.852a4.993,4.993,0,0,1,.488-2.234,3.643,3.643,0,0,1,1.359-1.531,3.7,3.7,0,0,1,1.988-.539,3.565,3.565,0,0,1,2.793,1.2,4.6,4.6,0,0,1,1.066,3.18v.1a5.036,5.036,0,0,1-.473,2.215,3.589,3.589,0,0,1-1.352,1.527,3.743,3.743,0,0,1-2.02.547,3.556,3.556,0,0,1-2.785-1.2,4.575,4.575,0,0,1-1.066-3.164Zm1.453.172A3.616,3.616,0,0,0,71,133.125a2.211,2.211,0,0,0,3.5-.012,3.955,3.955,0,0,0,.648-2.418,3.61,3.61,0,0,0-.66-2.254,2.1,2.1,0,0,0-1.754-.863A2.075,2.075,0,0,0,71,128.43,3.925,3.925,0,0,0,70.344,130.867ZM48.031,175H46.523L40.8,166.234V175H39.289V163.625H40.8l5.742,8.8v-8.8h1.492Zm7.656,0a3.036,3.036,0,0,1-.2-.891,3.225,3.225,0,0,1-2.406,1.047,2.984,2.984,0,0,1-2.051-.707,2.288,2.288,0,0,1-.8-1.793,2.39,2.39,0,0,1,1-2.051,4.733,4.733,0,0,1,2.824-.73h1.406v-.664A1.623,1.623,0,0,0,55.008,168a1.821,1.821,0,0,0-1.336-.449,2.107,2.107,0,0,0-1.3.391,1.151,1.151,0,0,0-.523.945H50.4a2,2,0,0,1,.449-1.223,3.066,3.066,0,0,1,1.219-.934,4.1,4.1,0,0,1,1.691-.344,3.342,3.342,0,0,1,2.289.73,2.635,2.635,0,0,1,.859,2.012v3.891a4.757,4.757,0,0,0,.3,1.852V175Zm-2.4-1.1a2.54,2.54,0,0,0,1.289-.352,2.127,2.127,0,0,0,.883-.914V170.9H54.328q-2.656,0-2.656,1.555a1.316,1.316,0,0,0,.453,1.063A1.742,1.742,0,0,0,53.289,173.9Zm7.25-7.352.047,1.063a3.08,3.08,0,0,1,2.531-1.219q2.68,0,2.7,3.023V175H64.375v-5.594a1.946,1.946,0,0,0-.418-1.352,1.675,1.675,0,0,0-1.277-.437,2.086,2.086,0,0,0-1.234.375,2.546,2.546,0,0,0-.828.984V175H59.172v-8.453Zm7.078,4.148a4.993,4.993,0,0,1,.488-2.234,3.643,3.643,0,0,1,1.359-1.531,3.7,3.7,0,0,1,1.988-.539,3.565,3.565,0,0,1,2.793,1.2,4.6,4.6,0,0,1,1.066,3.18v.1a5.036,5.036,0,0,1-.473,2.215,3.589,3.589,0,0,1-1.352,1.527,3.743,3.743,0,0,1-2.02.547,3.556,3.556,0,0,1-2.785-1.2,4.575,4.575,0,0,1-1.066-3.164Zm1.453.172a3.616,3.616,0,0,0,.652,2.258,2.211,2.211,0,0,0,3.5-.012,3.955,3.955,0,0,0,.648-2.418,3.61,3.61,0,0,0-.66-2.254,2.1,2.1,0,0,0-1.754-.863,2.075,2.075,0,0,0-1.727.852A3.925,3.925,0,0,0,69.07,170.867Zm-24.988,39.68V215h-1.5V203.625h4.2a4.215,4.215,0,0,1,2.926.953,3.231,3.231,0,0,1,1.059,2.523,3.189,3.189,0,0,1-1.035,2.551,4.4,4.4,0,0,1-2.965.895Zm0-1.227h2.7a2.7,2.7,0,0,0,1.844-.567,2.075,2.075,0,0,0,.641-1.64,2.143,2.143,0,0,0-.641-1.628,2.525,2.525,0,0,0-1.758-.634H44.082ZM54.02,215H52.574v-8.453H54.02Zm-1.562-10.7a.863.863,0,0,1,.215-.594.807.807,0,0,1,.637-.242.819.819,0,0,1,.641.242.854.854,0,0,1,.219.594.826.826,0,0,1-.219.586.834.834,0,0,1-.641.234.821.821,0,0,1-.637-.234A.834.834,0,0,1,52.457,204.3Zm7.266,9.672a2.082,2.082,0,0,0,1.352-.469,1.649,1.649,0,0,0,.641-1.172h1.367a2.621,2.621,0,0,1-.5,1.383,3.293,3.293,0,0,1-1.23,1.047,3.55,3.55,0,0,1-1.629.391A3.482,3.482,0,0,1,56.977,214a4.59,4.59,0,0,1-1.02-3.152v-.242a5.089,5.089,0,0,1,.453-2.2,3.451,3.451,0,0,1,1.3-1.492,3.7,3.7,0,0,1,2-.531,3.39,3.39,0,0,1,2.363.852,3.043,3.043,0,0,1,1,2.211H61.715a1.992,1.992,0,0,0-.621-1.348,1.932,1.932,0,0,0-1.379-.527,2.023,2.023,0,0,0-1.707.793,3.724,3.724,0,0,0-.605,2.293v.273a3.65,3.65,0,0,0,.6,2.25A2.033,2.033,0,0,0,59.723,213.977Zm4.6-3.281a4.993,4.993,0,0,1,.488-2.234,3.643,3.643,0,0,1,1.359-1.531,3.7,3.7,0,0,1,1.988-.539,3.565,3.565,0,0,1,2.793,1.2,4.6,4.6,0,0,1,1.066,3.18v.1a5.036,5.036,0,0,1-.473,2.215,3.589,3.589,0,0,1-1.352,1.527,3.743,3.743,0,0,1-2.02.547,3.556,3.556,0,0,1-2.785-1.2,4.575,4.575,0,0,1-1.066-3.164Zm1.453.172a3.616,3.616,0,0,0,.652,2.258,2.211,2.211,0,0,0,3.5-.012,3.955,3.955,0,0,0,.648-2.418,3.61,3.61,0,0,0-.66-2.254,2.1,2.1,0,0,0-1.754-.863,2.075,2.075,0,0,0-1.727.852A3.925,3.925,0,0,0,65.777,210.867ZM41.906,249.977H37.133V255h-1.5V243.625H42.68v1.227H37.133v3.9h4.773Zm5.688,5.18a3.693,3.693,0,0,1-2.8-1.129,4.19,4.19,0,0,1-1.078-3.02v-.266a5.073,5.073,0,0,1,.48-2.246,3.748,3.748,0,0,1,1.344-1.547,3.379,3.379,0,0,1,1.871-.559,3.166,3.166,0,0,1,2.563,1.086,4.7,4.7,0,0,1,.914,3.109v.6H45.164a3,3,0,0,0,.73,2.02,2.3,2.3,0,0,0,1.777.77,2.517,2.517,0,0,0,1.3-.312,3.258,3.258,0,0,0,.93-.828l.883.688A3.55,3.55,0,0,1,47.594,255.156Zm-.18-7.578a1.928,1.928,0,0,0-1.469.637A3.1,3.1,0,0,0,45.211,250h4.234v-.109a2.753,2.753,0,0,0-.594-1.707A1.815,1.815,0,0,0,47.414,247.578Zm6.508-1.031.039.938a3.122,3.122,0,0,1,2.508-1.094,2.417,2.417,0,0,1,2.414,1.359,3.2,3.2,0,0,1,1.1-.984,3.242,3.242,0,0,1,1.6-.375q2.781,0,2.828,2.945V255H62.961v-5.578a1.941,1.941,0,0,0-.414-1.355,1.823,1.823,0,0,0-1.391-.449,1.916,1.916,0,0,0-1.336.48,1.949,1.949,0,0,0-.617,1.293V255H57.75v-5.539a1.613,1.613,0,0,0-1.8-1.844A1.934,1.934,0,0,0,54,248.828V255H52.555v-8.453ZM68.547,244.5v2.047h1.578v1.117H68.547v5.249a1.173,1.173,0,0,0,.211.763.888.888,0,0,0,.719.254,3.5,3.5,0,0,0,.688-.094V255a4.215,4.215,0,0,1-1.109.155,1.8,1.8,0,0,1-1.461-.586,2.517,2.517,0,0,1-.492-1.664v-5.242H65.563v-1.117H67.1V244.5Zm2.727,6.2a4.993,4.993,0,0,1,.488-2.234,3.643,3.643,0,0,1,1.359-1.531,3.7,3.7,0,0,1,1.988-.539,3.565,3.565,0,0,1,2.793,1.2,4.6,4.6,0,0,1,1.066,3.18v.1a5.036,5.036,0,0,1-.473,2.215,3.589,3.589,0,0,1-1.352,1.527,3.743,3.743,0,0,1-2.02.547,3.556,3.556,0,0,1-2.785-1.2,4.575,4.575,0,0,1-1.066-3.164Zm1.453.172a3.616,3.616,0,0,0,.652,2.258,2.211,2.211,0,0,0,3.5-.012,3.955,3.955,0,0,0,.648-2.418,3.61,3.61,0,0,0-.66-2.254,2.1,2.1,0,0,0-1.754-.863,2.075,2.075,0,0,0-1.727.852A3.925,3.925,0,0,0,72.727,250.867ZM49.738,292.023H44.973L43.9,295H42.355L46.7,283.625h1.313L52.363,295H50.824ZM45.426,290.8h3.867l-1.937-5.32Zm10.07-6.3v2.047h1.578v1.117H55.5v5.249a1.173,1.173,0,0,0,.211.763.888.888,0,0,0,.719.254,3.5,3.5,0,0,0,.688-.094V295a4.215,4.215,0,0,1-1.109.155,1.8,1.8,0,0,1-1.461-.586,2.517,2.517,0,0,1-.492-1.664v-5.242H52.512v-1.117h1.539V284.5Zm5.227,0v2.047H62.3v1.117H60.723v5.249a1.173,1.173,0,0,0,.211.763.888.888,0,0,0,.719.254,3.5,3.5,0,0,0,.688-.094V295a4.215,4.215,0,0,1-1.109.155,1.8,1.8,0,0,1-1.461-.586,2.517,2.517,0,0,1-.492-1.664v-5.242H57.738v-1.117h1.539V284.5Zm2.727,6.2a4.993,4.993,0,0,1,.488-2.234A3.642,3.642,0,0,1,65.3,286.93a3.7,3.7,0,0,1,1.988-.539,3.565,3.565,0,0,1,2.793,1.2,4.6,4.6,0,0,1,1.066,3.18v.1a5.036,5.036,0,0,1-.473,2.215,3.589,3.589,0,0,1-1.352,1.527,3.743,3.743,0,0,1-2.02.547,3.556,3.556,0,0,1-2.785-1.2,4.575,4.575,0,0,1-1.066-3.164Zm1.453.172a3.616,3.616,0,0,0,.652,2.258,2.211,2.211,0,0,0,3.5-.012A3.955,3.955,0,0,0,69.7,290.7a3.61,3.61,0,0,0-.66-2.254,2.1,2.1,0,0,0-1.754-.863,2.075,2.075,0,0,0-1.727.852A3.925,3.925,0,0,0,64.9,290.867Z" transform="translate(-13575 -19152.662)" fill="#12263f"/>
  </g>
</svg>
