<svg xmlns="http://www.w3.org/2000/svg" xmlns:xlink="http://www.w3.org/1999/xlink" width="67.86" height="64.551" viewBox="0 0 67.86 64.551">
  <defs>
    <radialGradient id="radial-gradient" cx="0.5" cy="0.5" r="0.492" gradientTransform="matrix(1.005, -0.143, 0.148, 1.006, -3.01, -1.39)" gradientUnits="objectBoundingBox">
      <stop offset="0" stop-color="#00aeff"/>
      <stop offset="1"/>
    </radialGradient>
    <radialGradient id="radial-gradient-2" cx="0.5" cy="0.5" r="0.492" gradientTransform="matrix(1.005, -0.143, 0.148, 1.006, -3.145, -1.639)" xlink:href="#radial-gradient"/>
    <radialGradient id="radial-gradient-3" cx="0.5" cy="0.5" r="0.492" gradientTransform="matrix(1.005, -0.143, 0.148, 1.006, -1.96, -2.333)" xlink:href="#radial-gradient"/>
  </defs>
  <g id="Grupo_147049" data-name="Grupo 147049" transform="translate(-463.921 -468.59)">
    <g id="Grupo_134468" data-name="Grupo 134468" transform="translate(467.105 468.59)">
      <g id="Grupo_134466" data-name="Grupo 134466">
        <path id="Trazado_274356" data-name="Trazado 274356" d="M498.39,524.352l0-11.75a2.782,2.782,0,0,0-2.782-2.782H474.064V491.9H495.61a2.783,2.783,0,0,0,2.782-2.782V477.378l27.7,23.488Zm33.8-25.608L497.407,469.25a2.782,2.782,0,0,0-4.581,2.122l0,14.969H471.282a2.782,2.782,0,0,0-2.782,2.782V512.6a2.782,2.782,0,0,0,2.782,2.782h21.546l0,14.974a2.782,2.782,0,0,0,4.581,2.122l34.787-29.493a2.782,2.782,0,0,0,0-4.244Z" transform="translate(-468.5 -468.59)" fill="#00eaff" opacity="0.1"/>
        <path id="Trazado_274357" data-name="Trazado 274357" d="M498.32,524.681l0-12.023A2.655,2.655,0,0,0,495.666,510H473.992V491.833h21.673a2.656,2.656,0,0,0,2.656-2.655V477.16l28.023,23.761ZM532.167,498.9,497.381,469.4a2.656,2.656,0,0,0-4.373,2.026l0,15.1H471.337a2.655,2.655,0,0,0-2.655,2.655v23.479a2.655,2.655,0,0,0,2.655,2.655H493.01l0,15.1a2.656,2.656,0,0,0,4.373,2.026l34.787-29.492a2.656,2.656,0,0,0,0-4.051Z" transform="translate(-468.555 -468.645)" fill="#00eaff" opacity="0.136"/>
        <path id="Trazado_274358" data-name="Trazado 274358" d="M498.248,525.01l0-12.3a2.529,2.529,0,0,0-2.529-2.529h-21.8V491.763h21.8a2.531,2.531,0,0,0,2.529-2.529V476.942l28.345,24.034Zm33.892-25.961-34.786-29.495a2.529,2.529,0,0,0-4.164,1.929l0,15.222h-21.8a2.529,2.529,0,0,0-2.529,2.529v23.479a2.529,2.529,0,0,0,2.529,2.529h21.8l0,15.227a2.529,2.529,0,0,0,4.164,1.93l34.787-29.493a2.53,2.53,0,0,0,0-3.858Z" transform="translate(-468.611 -468.701)" fill="#00eaff" opacity="0.173"/>
        <path id="Trazado_274359" data-name="Trazado 274359" d="M498.177,525.338l0-12.569a2.4,2.4,0,0,0-2.4-2.4H473.85V491.692h21.927a2.4,2.4,0,0,0,2.4-2.4V476.724l28.667,24.308ZM532.114,499.2l-34.786-29.494a2.4,2.4,0,0,0-3.956,1.832l0,15.349H471.448a2.4,2.4,0,0,0-2.4,2.4v23.479a2.4,2.4,0,0,0,2.4,2.4h21.926l0,15.353a2.4,2.4,0,0,0,3.956,1.833l34.787-29.493a2.4,2.4,0,0,0,0-3.665Z" transform="translate(-468.666 -468.756)" fill="#00eaff" opacity="0.209"/>
        <path id="Trazado_274360" data-name="Trazado 274360" d="M498.106,525.666l0-12.842a2.276,2.276,0,0,0-2.276-2.277H473.779V491.62h22.052a2.277,2.277,0,0,0,2.276-2.276V476.507l28.989,24.58Zm33.981-26.315L497.3,469.857a2.276,2.276,0,0,0-3.748,1.737l0,15.476H471.5a2.276,2.276,0,0,0-2.276,2.275v23.479A2.277,2.277,0,0,0,471.5,515.1h22.052l0,15.48a2.276,2.276,0,0,0,3.748,1.737l34.787-29.493a2.275,2.275,0,0,0,0-3.472Z" transform="translate(-468.721 -468.811)" fill="#00eaff" opacity="0.245"/>
        <path id="Trazado_274361" data-name="Trazado 274361" d="M498.035,525.994l0-13.115a2.15,2.15,0,0,0-2.15-2.15H473.708v-19.18h22.179a2.149,2.149,0,0,0,2.15-2.15v-13.11l29.311,24.854ZM532.061,499.5l-34.786-29.495a2.149,2.149,0,0,0-3.539,1.64v15.6H471.559a2.15,2.15,0,0,0-2.15,2.15v23.479a2.15,2.15,0,0,0,2.15,2.15h22.179l0,15.607a2.149,2.149,0,0,0,3.539,1.64l34.787-29.493a2.149,2.149,0,0,0,0-3.279Z" transform="translate(-468.777 -468.867)" fill="#00eaff" opacity="0.282"/>
        <path id="Trazado_274362" data-name="Trazado 274362" d="M497.964,526.323l0-13.388a2.022,2.022,0,0,0-2.023-2.024H473.637V491.478h22.306a2.023,2.023,0,0,0,2.023-2.023V476.072L527.6,501.2Zm34.071-26.668-34.785-29.494a2.023,2.023,0,0,0-3.332,1.543l0,15.728H471.614a2.023,2.023,0,0,0-2.023,2.023v23.479a2.023,2.023,0,0,0,2.023,2.023H493.92l0,15.734a2.024,2.024,0,0,0,3.332,1.543l34.787-29.493a2.023,2.023,0,0,0,0-3.086Z" transform="translate(-468.832 -468.922)" fill="#00eaff" opacity="0.318"/>
        <path id="Trazado_274363" data-name="Trazado 274363" d="M497.892,526.652l0-13.661a1.9,1.9,0,0,0-1.9-1.9H473.566V491.408H496a1.9,1.9,0,0,0,1.9-1.9V475.854l29.955,25.4Zm34.116-26.845-34.785-29.495a1.9,1.9,0,0,0-3.123,1.447l0,15.855H471.669a1.9,1.9,0,0,0-1.9,1.9V512.99a1.9,1.9,0,0,0,1.9,1.9H494.1l0,15.86a1.9,1.9,0,0,0,3.123,1.447L532.008,502.7a1.9,1.9,0,0,0,0-2.893Z" transform="translate(-468.888 -468.977)" fill="#00eaff" opacity="0.355"/>
        <path id="Trazado_274364" data-name="Trazado 274364" d="M497.821,526.98l0-13.934a1.77,1.77,0,0,0-1.771-1.771H473.495V491.336h22.559a1.771,1.771,0,0,0,1.771-1.771v-13.93L528.1,501.309Zm34.161-27.021L497.2,470.464a1.77,1.77,0,0,0-2.915,1.351l0,15.981H471.725a1.771,1.771,0,0,0-1.771,1.77v23.479a1.77,1.77,0,0,0,1.771,1.77h22.559l0,15.987a1.77,1.77,0,0,0,2.915,1.351l34.787-29.494a1.77,1.77,0,0,0,0-2.7Z" transform="translate(-468.943 -469.033)" fill="#00eaff" opacity="0.391"/>
        <path id="Trazado_274365" data-name="Trazado 274365" d="M497.75,527.309l0-14.207a1.644,1.644,0,0,0-1.644-1.645H473.424V491.265h22.685a1.644,1.644,0,0,0,1.644-1.644v-14.2l30.6,25.945Zm34.205-27.2L497.17,470.616a1.644,1.644,0,0,0-2.707,1.253l0,16.108H471.78a1.644,1.644,0,0,0-1.644,1.643V513.1a1.645,1.645,0,0,0,1.644,1.644h22.685l0,16.113a1.644,1.644,0,0,0,2.707,1.254l34.787-29.493a1.643,1.643,0,0,0,0-2.508Z" transform="translate(-468.998 -469.088)" fill="#00eaff" opacity="0.427"/>
        <path id="Trazado_274366" data-name="Trazado 274366" d="M497.679,527.637l0-14.48a1.517,1.517,0,0,0-1.517-1.518H473.353V491.194h22.811a1.517,1.517,0,0,0,1.517-1.517V475.2L528.6,501.42Zm34.25-27.374-34.786-29.495a1.517,1.517,0,0,0-2.5,1.157l0,16.234H471.835a1.518,1.518,0,0,0-1.517,1.517v23.479a1.518,1.518,0,0,0,1.517,1.517h22.811l0,16.239a1.517,1.517,0,0,0,2.5,1.157l34.787-29.493a1.517,1.517,0,0,0,0-2.314Z" transform="translate(-469.054 -469.144)" fill="#00eaff" opacity="0.464"/>
        <path id="Trazado_274367" data-name="Trazado 274367" d="M497.608,527.965l0-14.754a1.391,1.391,0,0,0-1.391-1.391H473.282v-20.7h22.938a1.391,1.391,0,0,0,1.391-1.391V474.984l31.243,26.491Zm34.295-27.55-34.786-29.5a1.391,1.391,0,0,0-2.29,1.061l0,16.361H471.891a1.391,1.391,0,0,0-1.391,1.391v23.479a1.391,1.391,0,0,0,1.391,1.391h22.938l0,16.366a1.39,1.39,0,0,0,2.29,1.061L531.9,502.536a1.39,1.39,0,0,0,0-2.121Z" transform="translate(-469.109 -469.199)" fill="#00eaff" opacity="0.5"/>
      </g>
      <g id="Grupo_134467" data-name="Grupo 134467" transform="translate(1.391 1.391)">
        <path id="Trazado_274368" data-name="Trazado 274368" d="M497.608,527.965l0-14.754a1.391,1.391,0,0,0-1.391-1.391H473.282v-20.7h22.938a1.391,1.391,0,0,0,1.391-1.391V474.984l31.243,26.491Zm34.295-27.55-34.786-29.5a1.391,1.391,0,0,0-2.29,1.061l0,16.361H471.891a1.391,1.391,0,0,0-1.391,1.391v23.479a1.391,1.391,0,0,0,1.391,1.391h22.938l0,16.366a1.39,1.39,0,0,0,2.29,1.061L531.9,502.536a1.39,1.39,0,0,0,0-2.121Z" transform="translate(-470.5 -470.59)" fill="#00eaff" opacity="0"/>
        <path id="Trazado_274369" data-name="Trazado 274369" d="M497.572,528.129l0-14.89a1.327,1.327,0,0,0-1.328-1.328h-23V491.087h23a1.327,1.327,0,0,0,1.328-1.328V474.874l31.4,26.628Zm34.317-27.639L497.1,471a1.328,1.328,0,0,0-2.186,1.013l0,16.424h-23a1.328,1.328,0,0,0-1.328,1.328v23.479a1.328,1.328,0,0,0,1.328,1.328h23l0,16.429a1.328,1.328,0,0,0,.77,1.2,1.327,1.327,0,0,0,1.417-.192l34.787-29.493a1.327,1.327,0,0,0,0-2.025Z" transform="translate(-470.528 -470.618)" fill="#0debff" opacity="0.091"/>
        <path id="Trazado_274370" data-name="Trazado 274370" d="M497.536,528.293l0-15.026A1.264,1.264,0,0,0,496.275,512H473.211V491.052h23.064a1.264,1.264,0,0,0,1.265-1.264l0-15.021L529.1,501.531Zm34.339-27.727-34.785-29.494a1.264,1.264,0,0,0-2.082.964l0,16.487H471.946a1.264,1.264,0,0,0-1.264,1.264v23.479a1.264,1.264,0,0,0,1.264,1.264h23.064l0,16.492a1.265,1.265,0,0,0,2.082.965L531.876,502.5a1.264,1.264,0,0,0,0-1.929Z" transform="translate(-470.555 -470.645)" fill="#1aecff" opacity="0.182"/>
        <path id="Trazado_274371" data-name="Trazado 274371" d="M497.5,528.458l0-15.163a1.2,1.2,0,0,0-1.2-1.2H473.175V491.017H496.3a1.2,1.2,0,0,0,1.2-1.2l0-15.158,31.727,26.9Zm34.362-27.816-34.786-29.495a1.2,1.2,0,0,0-1.978.916l0,16.551H471.974a1.2,1.2,0,0,0-1.2,1.2v23.479a1.2,1.2,0,0,0,1.2,1.2H495.1l0,16.556a1.2,1.2,0,0,0,1.978.917l34.787-29.494a1.2,1.2,0,0,0,0-1.832Z" transform="translate(-470.583 -470.673)" fill="#28edff" opacity="0.273"/>
        <path id="Trazado_274372" data-name="Trazado 274372" d="M497.465,528.622l0-15.3a1.138,1.138,0,0,0-1.138-1.138H473.139v-21.2H496.33a1.14,1.14,0,0,0,1.138-1.138l0-15.294,31.888,27.037Zm34.385-27.9-34.786-29.495a1.138,1.138,0,0,0-1.874.868l0,16.614H472a1.138,1.138,0,0,0-1.138,1.138v23.479A1.137,1.137,0,0,0,472,514.46h23.191l0,16.619a1.137,1.137,0,0,0,1.874.868l34.787-29.493a1.138,1.138,0,0,0,0-1.736Z" transform="translate(-470.611 -470.701)" fill="#35eeff" opacity="0.364"/>
        <path id="Trazado_274373" data-name="Trazado 274373" d="M497.429,528.786l0-15.436a1.074,1.074,0,0,0-1.075-1.075H473.1v-21.33h23.254a1.076,1.076,0,0,0,1.075-1.075l0-15.431,32.049,27.174Zm34.407-27.992L497.051,471.3a1.075,1.075,0,0,0-1.77.819l0,16.677H472.029a1.075,1.075,0,0,0-1.075,1.074V513.35a1.075,1.075,0,0,0,1.075,1.074h23.254l0,16.682a1.075,1.075,0,0,0,.623.975,1.063,1.063,0,0,0,.451.1,1.076,1.076,0,0,0,.7-.255l34.787-29.493a1.075,1.075,0,0,0,0-1.64Z" transform="translate(-470.638 -470.728)" fill="#42efff" opacity="0.455"/>
        <path id="Trazado_274374" data-name="Trazado 274374" d="M497.394,528.951l0-15.573a1.013,1.013,0,0,0-1.012-1.012H473.068V490.91h23.317A1.011,1.011,0,0,0,497.4,489.9l0-15.567,32.21,27.311Zm34.429-28.081-34.785-29.5a1.012,1.012,0,0,0-1.666.771l0,16.741H472.057a1.011,1.011,0,0,0-1.012,1.011v23.479a1.012,1.012,0,0,0,1.012,1.012h23.317l0,16.745a1.012,1.012,0,0,0,1.666.772l34.787-29.494a1.011,1.011,0,0,0,0-1.542Z" transform="translate(-470.666 -470.756)" fill="#4ff1ff" opacity="0.545"/>
        <path id="Trazado_274375" data-name="Trazado 274375" d="M497.358,529.114l0-15.709a.95.95,0,0,0-.949-.949h-23.38V490.874h23.38a.95.95,0,0,0,.949-.949l0-15.7,32.371,27.447Zm34.452-28.169-34.786-29.495a.948.948,0,0,0-1.561.723l0,16.8H472.085a.948.948,0,0,0-.949.948v23.479a.949.949,0,0,0,.949.949h23.381l0,16.808a.948.948,0,0,0,.549.86.936.936,0,0,0,.4.088.948.948,0,0,0,.613-.225l34.787-29.493a.948.948,0,0,0,0-1.447Z" transform="translate(-470.694 -470.784)" fill="#5cf2ff" opacity="0.636"/>
        <path id="Trazado_274376" data-name="Trazado 274376" d="M497.323,529.278l0-15.846a.886.886,0,0,0-.885-.885H473V490.839h23.443a.886.886,0,0,0,.885-.885l0-15.841L529.856,501.7ZM531.8,501.021l-34.786-29.494a.885.885,0,0,0-1.457.675l0,16.867H472.112a.885.885,0,0,0-.885.885v23.479a.885.885,0,0,0,.885.885h23.444l0,16.871a.885.885,0,0,0,1.457.675L531.8,502.372a.885.885,0,0,0,0-1.35Z" transform="translate(-470.721 -470.811)" fill="#69f3ff" opacity="0.727"/>
        <path id="Trazado_274377" data-name="Trazado 274377" d="M497.287,529.442l0-15.982a.822.822,0,0,0-.822-.822H472.962V490.8h23.507a.822.822,0,0,0,.822-.822l0-15.977,32.693,27.72Zm34.5-28.345L497,471.6a.821.821,0,0,0-1.353.627l0,16.93H472.14a.822.822,0,0,0-.822.822V513.46a.822.822,0,0,0,.822.822h23.507l0,16.935a.821.821,0,0,0,1.353.627l34.787-29.493a.821.821,0,0,0,0-1.253Z" transform="translate(-470.749 -470.839)" fill="#77f4ff" opacity="0.818"/>
        <path id="Trazado_274378" data-name="Trazado 274378" d="M497.252,529.607l0-16.119a.759.759,0,0,0-.759-.759h-23.57V490.767H496.5a.757.757,0,0,0,.759-.759l0-16.113,32.854,27.857Zm34.519-28.434-34.785-29.495a.759.759,0,0,0-1.249.579V489.25h-23.57a.759.759,0,0,0-.759.759v23.479a.759.759,0,0,0,.759.759h23.57l0,17a.758.758,0,0,0,1.249.579l34.787-29.493a.758.758,0,0,0,0-1.157Z" transform="translate(-470.777 -470.867)" fill="#84f5ff" opacity="0.909"/>
        <path id="Trazado_274379" data-name="Trazado 274379" d="M497.216,529.771l0-16.255a.7.7,0,0,0-.7-.7H472.891V490.732h23.633a.7.7,0,0,0,.7-.7l0-16.25,33.015,27.993Zm34.541-28.522-34.785-29.494a.7.7,0,0,0-1.145.53l0,17.056H472.2a.7.7,0,0,0-.7.7v23.479a.7.7,0,0,0,.7.7h23.633l0,17.061a.7.7,0,0,0,.4.631.681.681,0,0,0,.291.065.7.7,0,0,0,.45-.165l34.787-29.493a.695.695,0,0,0,0-1.061Z" transform="translate(-470.805 -470.894)" fill="#91f6ff"/>
      </g>
      <path id="Trazado_274380" data-name="Trazado 274380" d="M531.685,501.667,496.9,472.172a.348.348,0,0,0-.573.265l0,17.4H472.348a.348.348,0,0,0-.348.348v23.479a.348.348,0,0,0,.348.348h23.981l0,17.409a.349.349,0,0,0,.2.316.349.349,0,0,0,.371-.05L531.685,502.2a.347.347,0,0,0,0-.53Zm-34.664,29.007,0-17.006a.347.347,0,0,0-.348-.348H472.7V490.536h23.981a.347.347,0,0,0,.348-.348l0-17,33.9,28.744Z" transform="translate(-469.566 -469.656)" fill="#fff"/>
    </g>
    <g id="Grupo_134469" data-name="Grupo 134469" transform="translate(463.921 482.345)">
      <path id="Trazado_274381" data-name="Trazado 274381" d="M534.821,501.649a6.663,6.663,0,1,0,5.628-7.656A6.712,6.712,0,0,0,534.821,501.649Z" transform="translate(-485.492 -490.061)" opacity="0.5" fill="url(#radial-gradient)" style="mix-blend-mode: screen;isolation: isolate"/>
      <path id="Trazado_274382" data-name="Trazado 274382" d="M510.442,544.278a7.219,7.219,0,1,0,6.1-8.3A7.271,7.271,0,0,0,510.442,544.278Z" transform="translate(-478.066 -502.847)" opacity="0.5" fill="url(#radial-gradient-2)" style="mix-blend-mode: screen;isolation: isolate"/>
      <path id="Trazado_274383" data-name="Trazado 274383" d="M464,497.367a7.763,7.763,0,1,0,6.557-8.92A7.82,7.82,0,0,0,464,497.367Z" transform="translate(-463.921 -488.368)" opacity="0.5" fill="url(#radial-gradient-3)" style="mix-blend-mode: screen;isolation: isolate"/>
    </g>
  </g>
</svg>
