<svg xmlns="http://www.w3.org/2000/svg" xmlns:xlink="http://www.w3.org/1999/xlink" width="400" height="338" viewBox="0 0 400 338">
  <defs>
    <linearGradient id="linear-gradient" x1="0.5" x2="0.5" y2="1" gradientUnits="objectBoundingBox">
      <stop offset="0" stop-color="#1f548a"/>
      <stop offset="1" stop-color="#0f1e5a"/>
    </linearGradient>
    <clipPath id="clip-path">
      <path id="Rect치ngulo_38135" data-name="Rect치ngulo 38135" d="M80,0H400a0,0,0,0,1,0,0V338a0,0,0,0,1,0,0H0a0,0,0,0,1,0,0V80A80,80,0,0,1,80,0Z" fill="url(#linear-gradient)"/>
    </clipPath>
    <radialGradient id="radial-gradient" cx="0.5" cy="1.123" r="0.53" gradientTransform="matrix(0.678, -0.735, -0.658, -0.607, 0.9, 2.172)" gradientUnits="objectBoundingBox">
      <stop offset="0" stop-color="aqua"/>
      <stop offset="0" stop-color="#00f2f2"/>
      <stop offset="1" stop-color="teal" stop-opacity="0"/>
    </radialGradient>
  </defs>
  <g id="Grupo_129373" data-name="Grupo 129373" transform="translate(19348.999 20403)">
    <path id="Rect치ngulo_38121" data-name="Rect치ngulo 38121" d="M80,0H400a0,0,0,0,1,0,0V338a0,0,0,0,1,0,0H0a0,0,0,0,1,0,0V80A80,80,0,0,1,80,0Z" transform="translate(-19349 -20403)" fill="url(#linear-gradient)"/>
    <g id="Enmascarar_grupo_94" data-name="Enmascarar grupo 94" transform="translate(-19349 -20403)" clip-path="url(#clip-path)">
      <g id="Grupo_129372" data-name="Grupo 129372" transform="translate(-386.343 -17.391)" opacity="0.1">
        <g id="Grupo_129369" data-name="Grupo 129369" transform="translate(0 0)">
          <path id="Trazado_173048" data-name="Trazado 173048" d="M291.51,354.987a412.814,412.814,0,0,1,45.584-137.882C445.67,16.081,696.683-58.815,897.66,49.848a412.821,412.821,0,0,1,212.929,305.139Z" transform="translate(-291.51 0)" opacity="0.41" fill="url(#radial-gradient)"/>
        </g>
        <g id="Grupo_129371" data-name="Grupo 129371" transform="translate(52.124 43.795)" opacity="0.5">
          <path id="Trazado_173049" data-name="Trazado 173049" d="M353.244,19.993h0a.869.869,0,0,0-1,.348L308.79,95.082a.739.739,0,0,0,0,1h0a.782.782,0,0,0,1,0l30.418-27.333a.957.957,0,0,0,.217-.348l13.036-47.5a.7.7,0,0,0-.217-.913ZM312.31,91.432,350.376,26.25,338.861,67.663Z" transform="translate(-283.76 124.357)" fill="aqua"/>
          <path id="Trazado_173050" data-name="Trazado 173050" d="M383.914,37.354h0a.869.869,0,0,0-1.043,0L318.731,103.1a.782.782,0,0,0,0,.869.869.869,0,0,0,.739.478l27.507-.3a.7.7,0,0,0,.652-.391l36.632-65.182a.826.826,0,0,0-.348-1.217ZM321.165,102.84l58.664-60.1-33.417,59.837Z" transform="translate(-250.29 41.292)" fill="aqua"/>
          <path id="Trazado_173051" data-name="Trazado 173051" d="M439.6,52.433a.783.783,0,0,0-.869,0L333.747,110.489a.782.782,0,0,0,.609,1.434l78.7-24.726a.7.7,0,0,0,.348-.261l26.334-33.373a.782.782,0,0,0,0-1ZM341.265,108.1,436.17,55.562,412.4,85.72Z" transform="translate(-200.993 -31.93)" fill="aqua"/>
          <path id="Trazado_173052" data-name="Trazado 173052" d="M455.536,65.726a.739.739,0,0,0-.652,0L358.11,85.585a.769.769,0,0,0,.174,1.521l44.107-.435h.261l52.624-19.642a.782.782,0,0,0,.522-.913,1.525,1.525,0,0,0-.261-.391ZM366.367,85.28,445.02,69.159,402.26,84.933Z" transform="translate(-120.152 -65.081)" fill="aqua"/>
          <path id="Trazado_173053" data-name="Trazado 173053" d="M514.189,82H513.8L380.652,66.056a.789.789,0,0,0-.348,1.521l53.058,18.251a.3.3,0,0,0,.261,0l80.261-2.477a.782.782,0,0,0,.782-.739.913.913,0,0,0-.478-.608ZM387.518,68.446,503.195,82.177l-69.528,2.129Z" transform="translate(-45.529 -65.585)" fill="aqua"/>
          <path id="Trazado_173054" data-name="Trazado 173054" d="M489.724,66.026a1.217,1.217,0,0,0-.565,0L367.92,72.283a.7.7,0,0,0-.739.739.739.739,0,0,0,.652.782L438.578,84.32a.477.477,0,0,0,.347,0l50.538-17.078a.7.7,0,0,0,.521-.869,1.039,1.039,0,0,0-.26-.348ZM375.612,73.239,483.727,67.72,438.751,82.93Z" transform="translate(-87.767 -63.817)" fill="aqua"/>
          <path id="Trazado_173055" data-name="Trazado 173055" d="M513.207,96.189h-.3L396.009,62.033a.7.7,0,0,0-.782.261.739.739,0,0,0,0,.826l11.907,26.073a.913.913,0,0,0,.652.478L512.642,97.71a.782.782,0,0,0,.826-.608.826.826,0,0,0-.261-.913ZM397.226,63.9,505.342,95.493l-97.078-7.3Z" transform="translate(5.643 -59.824)" fill="aqua"/>
          <path id="Trazado_173056" data-name="Trazado 173056" d="M490.649,94.533h0l-79.088-35.85a.782.782,0,0,0-.956,0,.739.739,0,0,0,0,.956l24.639,29.94a.651.651,0,0,0,.521.3L490,95.532a.869.869,0,0,0,.869-.565.914.914,0,0,0-.217-.434Zm-76.7-32.9,71.44,32.243-49.1-5.128Z" transform="translate(56.925 -42.525)" fill="aqua"/>
          <path id="Trazado_173057" data-name="Trazado 173057" d="M493.869,96.322h0l-64.009-49.1a.826.826,0,0,0-.826,0,.783.783,0,0,0-.435.7l.217,22.336a.869.869,0,0,0,.522.7l63.748,26.812a.826.826,0,0,0,1-.348A.869.869,0,0,0,493.869,96.322ZM430.338,49.435l57.751,44.5L430.338,69.641Z" transform="translate(117.713 4.79)" fill="aqua"/>
          <path id="Trazado_173058" data-name="Trazado 173058" d="M327.814,2.5h-.391a.782.782,0,0,0-.869.565L303.176,78.846a.956.956,0,0,0,.3.913.869.869,0,0,0,.956,0l23.944-21.727a.739.739,0,0,0,.261-.608l-.565-54.362a.739.739,0,0,0-.261-.565ZM305.478,76.629,326.6,8.145l.478,49.017Z" transform="translate(-301.959 216.596)" fill="aqua"/>
          <path id="Trazado_173059" data-name="Trazado 173059" d="M317.872,34.1h-1.434l10.82-30.418L305.574,22.846,304.488,34.1H302.88l1.173-11.689a1,1,0,0,1,.261-.521L328.258.163a.782.782,0,0,1,.956,0h0a.7.7,0,0,1,.217.869Z" transform="translate(-302.88 273.204)" fill="aqua"/>
          <path id="Trazado_173060" data-name="Trazado 173060" d="M364.689,28.755h0a.782.782,0,0,0-1,0L313.022,92.59a.869.869,0,0,0,0,1,.826.826,0,0,0,.956.217l35.633-16.6a.782.782,0,0,0,.435-.478L364.907,29.58a.739.739,0,0,0-.217-.826ZM316.324,90.982l45.845-57.795L348.655,75.9Z" transform="translate(-269.48 89.261)" fill="aqua"/>
          <path id="Trazado_173061" data-name="Trazado 173061" d="M491.5,68.626,460.732,1.01a.781.781,0,0,1,0-.869.738.738,0,0,1,.869,0l17.382,6.909h0a1,1,0,0,1,.3.435l14.9,61.141ZM478.026,8.18,462.948,2.14,491.8,65.5Z" transform="translate(224.768 238.679)" fill="aqua"/>
          <path id="Trazado_173062" data-name="Trazado 173062" d="M458.645,13.912a.869.869,0,0,0-.739,0,.782.782,0,0,0-.521.913l14.123,60.837a.7.7,0,0,0,.478.565l17.382,6.909a.782.782,0,0,0,.869,0,.739.739,0,0,0,0-.869L458.905,14.477a.783.783,0,0,0-.261-.565Zm14.3,60.837L460.6,21.69l27.377,59.142Z" transform="translate(213.948 163.941)" fill="aqua"/>
          <path id="Trazado_173063" data-name="Trazado 173063" d="M444.509,28.767a.707.707,0,1,0-.956,1.043l47.8,80.478a.783.783,0,0,0,.869.348l13.037-3.694a.869.869,0,0,0,.565-.521,1.087,1.087,0,0,0,0-.739L444.6,28.9Zm47.8,80.131-41.8-69.919,53.058,66.7Z" transform="translate(167.073 72.345)" fill="aqua"/>
          <path id="Trazado_173064" data-name="Trazado 173064" d="M313.648,34l3.085-26.334L307.434,34H306L317.82.54a.782.782,0,0,1,.913-.521.869.869,0,0,1,.348,0,.739.739,0,0,1,.261.7L315.212,34Z" transform="translate(-292.442 273.305)" fill="aqua"/>
          <path id="Trazado_173065" data-name="Trazado 173065" d="M340.185,7.638h0a.782.782,0,0,0-.956,0l-30.419,27.29a.7.7,0,0,0-.261.565l.565,54.405a.791.791,0,0,0,1.521.261l29.9-81.695A.826.826,0,0,0,340.185,7.638ZM310.028,35.884l27.855-24.943-27.376,74.7Z" transform="translate(-283.911 184.164)" fill="aqua"/>
          <path id="Trazado_173066" data-name="Trazado 173066" d="M379.4,46.055h0l-16.687-8.691a.782.782,0,0,0-1.043.3L325.036,102.85a.826.826,0,0,0,.217,1.043.782.782,0,0,0,1.043,0l53.276-56.752a.782.782,0,0,0,0-.7.742.742,0,0,0-.174-.391Zm-16.861-7,15.079,7.822L329.556,98.244Z" transform="translate(-229.088 41.238)" fill="aqua"/>
          <path id="Trazado_173067" data-name="Trazado 173067" d="M413.287,50.371a.652.652,0,0,0-.7,0l-78.7,24.769a.782.782,0,0,0-.565.652.912.912,0,0,0,.435.782l16.687,8.691a.869.869,0,0,0,.739,0l62.01-33.5a.874.874,0,0,0,.087-1.391ZM336.241,75.923,405.291,54.2,350.8,83.484Z" transform="translate(-201.01 3.505)" fill="aqua"/>
          <path id="Trazado_173068" data-name="Trazado 173068" d="M402.982,62.74a.826.826,0,0,0-.522,0l-44.15.435a.782.782,0,0,0-.739.608.739.739,0,0,0,.391.869l22.205,12.819a.826.826,0,0,0,.782,0l21.945-13.3a.825.825,0,0,0,.347-.869A.868.868,0,0,0,402.982,62.74Zm-41.76,1.825,38.414-.391-19.12,11.516Z" transform="translate(-120.005 -42.714)" fill="aqua"/>
          <path id="Trazado_173069" data-name="Trazado 173069" d="M401.064,71.015h0L378.771,58.239a.826.826,0,0,0-1.043,0L351.656,91.656a.782.782,0,0,0,0,.956.738.738,0,0,0,.913,0l48.539-20.554a.522.522,0,1,0-.044-1.043Zm-22.51-11.168L398.8,71.536,354.567,90.309Z" transform="translate(-140.248 -37.736)" fill="aqua"/>
          <path id="Trazado_173070" data-name="Trazado 173070" d="M481.506,19.625,464.776,3.46l5.084,16.165H468.47l-5.779-18.6a.782.782,0,0,1,.348-.869.739.739,0,0,1,.913,0h0L483.9,19.625Z" transform="translate(231.673 287.679)" fill="aqua"/>
          <path id="Trazado_173071" data-name="Trazado 173071" d="M491.58,68.784,463.334,6.774l7.735,42.8,19.772,19.207h-2.39L469.5,50.533a.825.825,0,0,1-.217-.435L460.6.952a.782.782,0,0,1,.565-.869.869.869,0,0,1,.739,0v.3l31.374,68.4Z" transform="translate(224.729 238.52)" fill="aqua"/>
          <path id="Trazado_173072" data-name="Trazado 173072" d="M468.615,15.471h0a.782.782,0,0,0-.608,0L454.97,19.165a.783.783,0,0,0-.522.435.87.87,0,0,0,0,.652l27.159,57.186a.783.783,0,1,0,1.477-.521L468.963,16.08a.913.913,0,0,0-.348-.608Zm-12.428,4.823,11.342-3.216,12.3,53.015Z" transform="translate(203.978 162.382)" fill="aqua"/>
          <path id="Trazado_173073" data-name="Trazado 173073" d="M448.745,28.644a.869.869,0,0,0-.652,0,.782.782,0,0,0-.609.652L442.1,58.237a.956.956,0,0,0,.217.739l53.362,51.45a.782.782,0,0,0,1.217-.956l-47.8-80.435ZM443.7,57.933l4.91-26.507L492.547,105.3Z" transform="translate(162.838 72.468)" fill="aqua"/>
          <path id="Trazado_173074" data-name="Trazado 173074" d="M493.736,73.822h-.217L429.728,47.054a.782.782,0,0,0-.913.261.739.739,0,0,0,0,.956l22.162,27.2a.739.739,0,0,0,.608.3l41.586-.435a.782.782,0,0,0,.522-1.391ZM432.031,49.7l57.4,24.117-37.5.261Z" transform="translate(117.846 27.29)" fill="aqua"/>
          <path id="Trazado_173075" data-name="Trazado 173075" d="M476.64,40.476a.826.826,0,0,0-.522,0l-41.586.435a.739.739,0,0,0-.739.521.826.826,0,0,0,.217.869h0l36.2,28.55a.739.739,0,0,0,.782,0,.7.7,0,0,0,.478-.565L476.857,41.3a.868.868,0,0,0,0-.652S476.64,40.52,476.64,40.476Zm-39.892,1.955,38.458-.391-5,26.464Z" transform="translate(134.942 60.636)" fill="aqua"/>
          <path id="Trazado_173076" data-name="Trazado 173076" d="M471.693,58.916a.782.782,0,0,0-.435,0l-54.231-5.649a.782.782,0,0,0-.478,1.477l54.492,27.985a.825.825,0,0,0,1.173-.739l-.043-22.466A.739.739,0,0,0,471.693,58.916Zm-50.712-3.824,49.408,5.128.217,20.337Z" transform="translate(75.881 -6.908)" fill="aqua"/>
          <path id="Trazado_173077" data-name="Trazado 173077" d="M503.969,67.726h-.435l-105.074-8a.782.782,0,0,0,0,1.521L477.9,79.111h.435l25.552-9.995a.782.782,0,0,0,.478-.826,1,1,0,0,0-.391-.565Zm-94.905-5.649,90.907,6.779-22.119,8.691Z" transform="translate(14.881 -31.361)" fill="aqua"/>
          <path id="Trazado_173078" data-name="Trazado 173078" d="M435.262,63.921a.869.869,0,0,0-.739,0L383.985,81a.782.782,0,0,0-.521.826.739.739,0,0,0,.652.7L446.647,91.6a.782.782,0,0,0,.826-1.086L435.566,64.442a.782.782,0,0,0-.3-.522ZM387.461,81.3l46.8-15.774L445.3,89.863Z" transform="translate(-33.305 -61.712)" fill="aqua"/>
          <path id="Trazado_173079" data-name="Trazado 173079" d="M454.448,73.541a.825.825,0,0,0-.391,0l-70.744-10.82a.782.782,0,0,0-.739.261L362.759,87.794a.829.829,0,0,0,.782,1.26l90.517-14.3a.782.782,0,0,0,.7-.782.912.912,0,0,0-.3-.435ZM383.53,64.155l65.182,9.995L365.105,87.186Z" transform="translate(-103.03 -54.254)" fill="aqua"/>
          <path id="Trazado_173080" data-name="Trazado 173080" d="M364.179,20.086a.782.782,0,0,0-.826,0L327.851,36.6a.652.652,0,0,0-.348.348L308.644,74.318a.831.831,0,0,0,1.26,1l54.449-53.971a.739.739,0,0,0,0-1ZM328.633,37.9l31.331-14.688-47.8,47.453Z" transform="translate(-283.875 145.035)" fill="aqua"/>
          <path id="Trazado_173081" data-name="Trazado 173081" d="M400.419,48.371a.652.652,0,0,0-.826,0l-62.01,33.417a.774.774,0,0,0,.217,1.434l48.713,9a.7.7,0,0,0,.869-.521l13.3-42.412a.825.825,0,0,0-.217-.826ZM340.278,82.005l58.36-31.418L386.122,90.479Z" transform="translate(-188.143 5.505)" fill="aqua"/>
          <path id="Trazado_173082" data-name="Trazado 173082" d="M454.574,60.526a1,1,0,0,0-.608,0l-90.6,13.819a.782.782,0,0,0,0,1.564l72.569,9.821a.782.782,0,0,0,.739-.3L454.7,61.742a.782.782,0,0,0,0-.869ZM368.75,75.083,452.1,62.046,435.54,83.774Z" transform="translate(-103.155 -41.239)" fill="aqua"/>
          <path id="Trazado_173083" data-name="Trazado 173083" d="M326.365,34.009,312.981,3.591l-3.607,30.418H307.81L311.721.723a.782.782,0,0,1,1.3-.521.651.651,0,0,1,.217.261L328.1,34.009Z" transform="translate(-286.387 273.296)" fill="aqua"/>
          <path id="Trazado_173084" data-name="Trazado 173084" d="M474.572,19.643,469.444,3.131l-6.909,16.513H460.84L468.618.523a.782.782,0,0,1,.739-.478.652.652,0,0,1,.478,0,.653.653,0,0,1,.261.391l5.866,19.207Z" transform="translate(225.572 287.661)" fill="aqua"/>
          <path id="Trazado_173085" data-name="Trazado 173085" d="M529.127,4.185a1,1,0,0,0-.609,0l-87.344,12.08A.8.8,0,0,0,441,17.786l96.035,36.893a.826.826,0,0,0,.782,0,.782.782,0,0,0,.26-.739L529.388,4.793a1.043,1.043,0,0,0-.261-.608ZM444.39,17.221,528,5.488l8.3,47.062Z" transform="translate(157.589 234.549)" fill="aqua"/>
          <path id="Trazado_173086" data-name="Trazado 173086" d="M501.944,12.607a.52.52,0,0,0-.391,0,.739.739,0,0,0-.7.261L440.673,82.4a.783.783,0,0,0,0,.913.826.826,0,0,0,.782.391L528.8,71.445a.868.868,0,0,0,.565-.391.738.738,0,0,0,0-.739L502.248,13.172a.434.434,0,0,0-.3-.565ZM443.237,81.57l58.012-66.964L527.322,69.75Z" transform="translate(157.612 168.983)" fill="aqua"/>
          <path id="Trazado_173087" data-name="Trazado 173087" d="M454.7,28.808a.739.739,0,0,0-1.217.3l-14.731,38.2a.782.782,0,0,0,.565,1.043l68.093,13.3a.739.739,0,0,0,.7-1.3L454.741,28.851ZM440.531,66.961,454.48,30.72l50.712,48.887Z" transform="translate(151.497 101.289)" fill="aqua"/>
          <path id="Trazado_173088" data-name="Trazado 173088" d="M509.962,69.11h0L473.547,40.56a.7.7,0,0,0-.7,0L422.705,55.378a.782.782,0,0,0-.522.826.7.7,0,0,0,.652.7l86.518,13.558a.739.739,0,0,0,.826-.435A.782.782,0,0,0,509.962,69.11ZM473.069,42.081,506.616,68.5,426.486,55.943Z" transform="translate(96.232 60.987)" fill="aqua"/>
          <path id="Trazado_173089" data-name="Trazado 173089" d="M451.564,43.6a.652.652,0,0,0-.521,0,.7.7,0,0,0-.609.348L422.319,86.14a.738.738,0,0,0,0,.869.826.826,0,0,0,.869.3l50.364-14.992a.782.782,0,0,0,.521-.521.869.869,0,0,0,0-.739L451.825,43.685ZM424.8,85.011l26.334-39.5L471.9,70.975Z" transform="translate(96.227 30.746)" fill="aqua"/>
          <path id="Trazado_173090" data-name="Trazado 173090" d="M478.535,72.7a.479.479,0,0,0-.3,0L398.8,54.845a.782.782,0,0,0-.913.435.826.826,0,0,0,.217.913L445.118,95.3a.912.912,0,0,0,.956,0l32.417-21.293a.7.7,0,0,0,.3-.782A.739.739,0,0,0,478.535,72.7ZM401.62,56.974l74.438,16.687L445.64,93.65Z" transform="translate(14.763 -26.346)" fill="aqua"/>
          <path id="Trazado_173091" data-name="Trazado 173091" d="M471.772,71.714h0L417.279,43.729a.782.782,0,0,0-.869,0,.7.7,0,0,0-.217.826l26.377,70.179a.7.7,0,0,0,.608.478.739.739,0,0,0,.739-.3l28.115-42.151a.913.913,0,0,0,0-.652A.652.652,0,0,0,471.772,71.714ZM418.235,45.945,470.12,72.583l-26.768,40.2Z" transform="translate(76.019 2.63)" fill="aqua"/>
          <path id="Trazado_173092" data-name="Trazado 173092" d="M401.242,55.958h0a.739.739,0,0,0-.782,0L351.921,76.512a.826.826,0,0,0-.478.826.782.782,0,0,0,.609.652l43.455,9.256a.631.631,0,0,0,.912-.521L401.676,56.7a.782.782,0,0,0-.435-.739ZM354.832,76.9,399.721,57.87l-4.693,27.594Z" transform="translate(-140.426 -22.679)" fill="aqua"/>
          <path id="Trazado_173093" data-name="Trazado 173093" d="M368.888,14.572a.825.825,0,0,0-.347,0L339.513,7.489a.7.7,0,0,0-.913.478L308.7,89.705a.782.782,0,0,0,.391.956.7.7,0,0,0,.956,0l58.925-74.568a.826.826,0,0,0,0-.782.956.956,0,0,0-.087-.739ZM339.817,9.01l27.2,6.649L311.875,85.664Z" transform="translate(-283.543 184.096)" fill="aqua"/>
          <path id="Trazado_173094" data-name="Trazado 173094" d="M338.8,24.7a.7.7,0,0,0-.913.217L321.2,45.99a.783.783,0,0,0,0,.608l5,33.764a.782.782,0,0,0,.782.652.739.739,0,0,0,.782-.608L339.4,25.566a.739.739,0,0,0-.608-.869ZM322.457,46.424,336.841,28.26,326.759,75.582Z" transform="translate(-241.805 119.348)" fill="aqua"/>
          <path id="Trazado_173095" data-name="Trazado 173095" d="M428,46.285h-.348l-48.669-9a.912.912,0,0,0-.739.217l-53.1,56.622a.782.782,0,0,0,0,1,.739.739,0,0,0,.956,0l102.032-47.8a.782.782,0,0,0,.435-.826A.825.825,0,0,0,428,46.285ZM379.11,38.724,425.085,47.2,328.876,92.173Z" transform="translate(-229.017 50.004)" fill="aqua"/>
          <path id="Trazado_173096" data-name="Trazado 173096" d="M367.928,33.955,311.176,2.58,325.3,33.955h-1.738l-14.775-32.9a.825.825,0,0,1,0-.913.782.782,0,0,1,.913,0l61.315,33.808Z" transform="translate(-283.582 273.35)" fill="aqua"/>
          <path id="Trazado_173097" data-name="Trazado 173097" d="M418.513,17.8a.869.869,0,0,0-.348,0l-49.625-10.3a.739.739,0,0,0-.782.261L308.834,82.421a.869.869,0,0,0,0,1.043.782.782,0,0,0,1,0L418.47,18.934a.782.782,0,0,0,.348-.782.738.738,0,0,0-.3-.348Zm-49.8-8.691,47.148,9.56L312.7,80.075Z" transform="translate(-283.543 191.163)" fill="aqua"/>
          <path id="Trazado_173098" data-name="Trazado 173098" d="M335.154,22.321a1,1,0,0,0-.608,0,.913.913,0,0,0-.652.608L322.248,77.813a.738.738,0,0,0,.608.913l49.625,10.038a.7.7,0,0,0,.782-.3.739.739,0,0,0,0-.826L335.284,22.712ZM323.942,76.944,335.023,24.8,371.09,86.461Z" transform="translate(-238.163 121.724)" fill="aqua"/>
          <path id="Trazado_173099" data-name="Trazado 173099" d="M406.419,57.488a.825.825,0,0,0-.347,0l-43.455-9.256a.826.826,0,0,0-.913.521l-13.3,42.412a.826.826,0,0,0,.261.869h0a.782.782,0,0,0,.869,0l56.752-33.243a.782.782,0,0,0,.391-.826,1.043,1.043,0,0,0-.261-.478ZM362.964,49.8l40.761,8.691L350.492,89.644Z" transform="translate(-150.687 5.602)" fill="aqua"/>
          <path id="Trazado_173100" data-name="Trazado 173100" d="M461.086,69.692a.564.564,0,0,0-.391,0l-62.444-9.256a.956.956,0,0,0-.739.3L379.478,84.553a.782.782,0,0,0,.782,1.26l80.3-14.775a.907.907,0,0,0,.522-1.347Zm-62.575-7.778,57.273,8.43L381.912,83.728Z" transform="translate(-47.223 -41.149)" fill="aqua"/>
          <path id="Trazado_173101" data-name="Trazado 173101" d="M428.209,22.436a.739.739,0,0,0-.826,0L325.352,70.106a.912.912,0,0,0-.391,1.086l37.979,64.921a.775.775,0,0,0,1.347,0L428.339,23.436a.782.782,0,0,0,0-.956ZM326.829,71.149,425.862,24.87,363.679,134.158Z" transform="translate(-229.229 73.852)" fill="aqua"/>
          <path id="Trazado_173102" data-name="Trazado 173102" d="M394.57,98.557,416.819,2.435,311.05,65.314l59.924,33.243h-3.216L309.095,66.009a.782.782,0,0,1-.435-.652.826.826,0,0,1,.391-.7L417.688.132a.782.782,0,0,1,.869,0h0a.739.739,0,0,1,.261.782l-22.64,97.643Z" transform="translate(-283.543 208.748)" fill="aqua"/>
          <path id="Trazado_173103" data-name="Trazado 173103" d="M528.933,56.48,536.407,38.1,443.11,2.292,472.833,56.48h-1.782L440.633,1.162a.782.782,0,0,1,0-.913A.912.912,0,0,1,441.5.033l96.035,36.893h.217a.782.782,0,0,1,0,.3.739.739,0,0,1,0,.608L530.628,56.48Z" transform="translate(157.478 250.825)" fill="aqua"/>
          <path id="Trazado_173104" data-name="Trazado 173104" d="M440.379,65.657h-.391l-72.57-9.821a.782.782,0,0,0-.869.652L361.465,86.3a.739.739,0,0,0,.956.913l77.654-20.033a.782.782,0,0,0,.608-.782.912.912,0,0,0-.3-.739ZM367.94,57.314l67.876,9.212L363.2,85.211Z" transform="translate(-106.994 -22.557)" fill="aqua"/>
          <path id="Trazado_173105" data-name="Trazado 173105" d="M435.856,51.558a.782.782,0,0,0-1.086,0l-47.8,54.362a.854.854,0,0,0,.826,1.3l94.818-15.253a.738.738,0,0,0,.521-.652.782.782,0,0,0-.261-.826L435.856,51.384ZM389.62,105.4l45.845-52.146L480.571,90.8Z" transform="translate(-21.993 -23.016)" fill="aqua"/>
          <path id="Trazado_173106" data-name="Trazado 173106" d="M461.1,51.361a.7.7,0,0,0-.652,0L379.973,65.918a.782.782,0,0,0-.565.521.652.652,0,0,0,0,.739l32.678,39.8a.912.912,0,0,0,.608.3.87.87,0,0,0,.608-.261l47.8-54.362a.783.783,0,0,0,0-.913.434.434,0,0,0,0-.391ZM381.581,67.048l76.958-13.906-45.758,51.972Z" transform="translate(-47.24 -22.819)" fill="aqua"/>
          <path id="Trazado_173107" data-name="Trazado 173107" d="M406.125,39.723h0a.826.826,0,0,0-.782,0L348.852,72.879a.738.738,0,0,0-.391.7.7.7,0,0,0,.391.652l62.836,37.415a.826.826,0,0,0,.826,0,.782.782,0,0,0,.391-.7l-6.171-70.571A.869.869,0,0,0,406.125,39.723ZM350.46,73.531l54.492-31.9,5.91,67.833Z" transform="translate(-150.394 23.366)" fill="aqua"/>
          <path id="Trazado_173108" data-name="Trazado 173108" d="M362.542,98.59H358.2l72-26.855L352.461,2.207,330.038,98.59H328.43L351.113.686a.739.739,0,0,1,.521-.608.913.913,0,0,1,.739,0h0l79.7,71.353a.782.782,0,0,1,0,1.3Z" transform="translate(-217.403 208.715)" fill="aqua"/>
          <path id="Trazado_173109" data-name="Trazado 173109" d="M509.952,45.216a.783.783,0,0,0-.391,0L423.042,31.658a.782.782,0,0,0-.565,1.391L494.264,84.8a.912.912,0,0,0,.7,0,.868.868,0,0,0,.478-.478l14.731-38.2a.7.7,0,0,0,0-.652ZM426.041,33.527l82.347,13.036L494.352,82.891Z" transform="translate(96.242 84.88)" fill="aqua"/>
          <path id="Trazado_173110" data-name="Trazado 173110" d="M508.061,26.083a.521.521,0,0,0-.347,0L439.62,12.743a.825.825,0,0,0-.7,0,.738.738,0,0,0-.217.652l7.908,82.564a.738.738,0,0,0,.521.652.652.652,0,0,0,.826,0l60.185-69.528a.782.782,0,0,0,0-.739,1.213,1.213,0,0,0-.087-.261Zm-67.7-11.733L506.106,27.17l-58.1,67.051Z" transform="translate(151.495 155.507)" fill="aqua"/>
          <path id="Trazado_173111" data-name="Trazado 173111" d="M442.328,43.664h-.261a.7.7,0,0,0-.652,0L409,64.956a.739.739,0,0,0-.347.608.869.869,0,0,0,.261.652l58.794,48.843h0a.782.782,0,0,0,.956,0,.739.739,0,0,0,.261-.913L442.588,43.881a1.041,1.041,0,0,0-.261-.217ZM410.736,65.608,441.459,45.4l25.2,66.529Z" transform="translate(50.971 2.695)" fill="aqua"/>
          <path id="Trazado_173112" data-name="Trazado 173112" d="M553.487,12.659h0a.782.782,0,0,0-.609,0l-147.4,16.687a.739.739,0,0,0-.7.652.782.782,0,0,0,.478.826L560.614,96.874a.738.738,0,0,0,.739,0,.781.781,0,0,0,.348-.7l-7.952-82.564a.608.608,0,0,0-.261-.956ZM408.609,30.388,552.271,14.136l7.735,80.609Z" transform="translate(38.019 155.591)" fill="aqua"/>
          <path id="Trazado_173113" data-name="Trazado 173113" d="M386.813,27.408l-23.2-25.2-13.036,25.2H348.79L362.739.466a.739.739,0,0,1,.608-.391.652.652,0,0,1,.608,0h0l24.856,27.333Z" transform="translate(-149.289 279.897)" fill="aqua"/>
          <path id="Trazado_173114" data-name="Trazado 173114" d="M435.672,39.691a.7.7,0,0,0-.521,0,.912.912,0,0,0-.609.3l-71.526,90.386a.738.738,0,0,0,0,.956.7.7,0,0,0,.912.217L468.219,80.8a.739.739,0,0,0,.434-.521.694.694,0,0,0,0-.652l-32.722-39.8ZM366.4,128.643l68.789-86.91,31.461,38.284Z" transform="translate(-102.287 3.409)" fill="aqua"/>
          <path id="Trazado_173115" data-name="Trazado 173115" d="M545.906,56.557h-2L586.8,1.978,398.768,34.829,418.54,56.557H416.41L396.682,34.829a.782.782,0,0,1,.435-1.3L588.535.066a.739.739,0,0,1,.608,0V.283a.7.7,0,0,1,0,.869Z" transform="translate(10.229 250.748)" fill="aqua"/>
          <path id="Trazado_173116" data-name="Trazado 173116" d="M423.732,28.179a.782.782,0,0,0-.739,0,.825.825,0,0,0-.522.608L404.525,144.855a.85.85,0,0,0,1.3.782l76.7-67.311a.608.608,0,0,0,.261-.608.7.7,0,0,0-.261-.565ZM406.35,142.943,423.732,30.265l57.013,47.409Z" transform="translate(37.149 39.473)" fill="aqua"/>
          <path id="Trazado_173117" data-name="Trazado 173117" d="M400.018,20.706a.738.738,0,0,0-.739,0,.782.782,0,0,0-.565.652L383.288,154.764a.738.738,0,0,0,.261.7h0a.825.825,0,0,0,.782,0l92.3-32.5a.739.739,0,0,0,.478-.521.7.7,0,0,0,0-.7l-77-100.9ZM384.983,153.548,400.062,23.183l75.046,98.555Z" transform="translate(-33.912 62.198)" fill="aqua"/>
          <path id="Trazado_173118" data-name="Trazado 173118" d="M402.254,6.027a.652.652,0,0,0-.478,0,.739.739,0,0,0-.739.521L352.063,152.774a.869.869,0,0,0,0,.739.912.912,0,0,0,.739,0l94.862-20.076a.608.608,0,0,0,.478-.391.825.825,0,0,0,0-.652L402.427,6.375a.7.7,0,0,0-.174-.348ZM353.932,151.949l47.8-142.966L446.36,132.09Z" transform="translate(-138.614 127.719)" fill="aqua"/>
          <path id="Trazado_173119" data-name="Trazado 173119" d="M378.93,77.248a7.127,7.127,0,1,0-9.6,2.868,7.04,7.04,0,0,0,9.6-2.868Z" transform="translate(-93.215 -63.524)" fill="#b7ffff"/>
          <path id="Trazado_173120" data-name="Trazado 173120" d="M345.253,61.344a7.083,7.083,0,1,0-9.6,2.868A7.083,7.083,0,0,0,345.253,61.344Z" transform="translate(-205.677 21.083)" fill="#b7ffff"/>
          <path id="Trazado_173121" data-name="Trazado 173121" d="M420.272,39.411a9.125,9.125,0,1,0-5.416,4.442,9.169,9.169,0,0,0,5.416-4.442Z" transform="translate(32.179 150.566)" fill="#b7ffff"/>
          <path id="Trazado_173122" data-name="Trazado 173122" d="M398.16,32.4a9.169,9.169,0,1,0-12.428,3.737A9.169,9.169,0,0,0,398.16,32.4Z" transform="translate(-41.831 187.999)" fill="#b7ffff"/>
          <path id="Trazado_173123" data-name="Trazado 173123" d="M362.006,13.869a6.04,6.04,0,1,0-8.169,2.433,6.04,6.04,0,0,0,8.169-2.433Z" transform="translate(-143.037 268.797)" fill="#b7ffff"/>
          <path id="Trazado_173124" data-name="Trazado 173124" d="M332,32.738a6.04,6.04,0,1,0-3.6,2.924,6.04,6.04,0,0,0,3.6-2.924Z" transform="translate(-243.443 167.842)" fill="#b7ffff"/>
          <path id="Trazado_173125" data-name="Trazado 173125" d="M451.624,47.821a6.04,6.04,0,1,0-8.213,2.433,6.04,6.04,0,0,0,8.213-2.433Z" transform="translate(156.743 87.229)" fill="#b7ffff"/>
          <path id="Trazado_173126" data-name="Trazado 173126" d="M450.682,20.369a6.057,6.057,0,1,0-8.213,2.433,6.057,6.057,0,0,0,8.213-2.433Z" transform="translate(153.513 234.139)" fill="#b7ffff"/>
          <path id="Trazado_173127" data-name="Trazado 173127" d="M396.8,58.684a6.047,6.047,0,1,0-8.191,2.455,6.047,6.047,0,0,0,8.191-2.455Z" transform="translate(-26.7 29.174)" fill="#b7ffff"/>
          <path id="Trazado_173128" data-name="Trazado 173128" d="M319.007,15.123a6.084,6.084,0,1,0-5.966,3.194,6.084,6.084,0,0,0,5.966-3.194Z" transform="translate(-287.242 262.111)" fill="#b7ffff"/>
          <path id="Trazado_173129" data-name="Trazado 173129" d="M373.46,47.423a6.084,6.084,0,1,0-8.213,2.433,6.084,6.084,0,0,0,8.213-2.433Z" transform="translate(-104.953 89.8)" fill="#b7ffff"/>
          <path id="Trazado_173130" data-name="Trazado 173130" d="M358.3,56.074a6.047,6.047,0,1,0-8.191,2.455A6.047,6.047,0,0,0,358.3,56.074Z" transform="translate(-155.501 43.126)" fill="#b7ffff"/>
          <path id="Trazado_173131" data-name="Trazado 173131" d="M426.134,67.184a6.047,6.047,0,1,0-8.191,2.455,6.047,6.047,0,0,0,8.191-2.455Z" transform="translate(71.423 -16.262)" fill="#b7ffff"/>
          <path id="Trazado_173132" data-name="Trazado 173132" d="M386.527,76.863a6.084,6.084,0,1,0-5.966,3.194A6.084,6.084,0,0,0,386.527,76.863Z" transform="translate(-61.355 -67.918)" fill="#b7ffff"/>
        </g>
      </g>
    </g>
  </g>
</svg>
